<svg id="svg" version="1.1" width="800" height="388" xmlns="http://www.w3.org/2000/svg"><path d="M456.599 267.417 C 456.295 271.313,455.761 279.605,455.412 285.845 L 454.778 297.191 452.139 296.524 C 444.659 294.634,443.168 294.741,440.557 297.352 C 438.956 298.953,438.000 301.025,438.000 302.896 C 438.000 304.538,437.511 306.184,436.913 306.554 C 434.634 307.963,433.602 304.712,433.352 295.338 C 433.035 283.408,432.368 282.500,423.928 282.500 C 419.793 282.500,417.651 282.946,417.040 283.935 C 416.552 284.725,416.190 290.125,416.235 295.935 C 416.298 304.011,415.921 307.266,414.633 309.750 C 412.609 313.655,411.061 313.793,406.215 310.500 C 404.191 309.125,401.726 308.000,400.736 308.000 C 397.208 308.000,392.175 310.860,390.782 313.658 C 389.968 315.291,388.757 316.328,387.933 316.096 C 384.179 315.037,373.684 314.883,371.240 315.851 C 369.733 316.448,366.700 317.063,364.500 317.218 L 360.500 317.500 359.992 311.797 C 359.576 307.124,358.910 305.499,356.303 302.797 C 352.407 298.759,351.000 295.222,351.000 289.470 C 351.000 284.335,349.377 283.000,343.133 283.000 C 338.249 283.000,338.354 282.699,337.479 299.192 C 337.036 307.543,336.332 312.502,335.422 313.692 C 334.216 315.268,333.909 315.307,333.034 314.000 C 331.678 311.973,331.734 302.060,333.125 298.071 C 334.895 292.994,333.168 290.416,327.130 289.121 C 321.268 287.864,316.895 289.217,313.257 293.413 C 311.752 295.148,310.001 296.000,307.941 296.000 C 306.251 296.000,303.998 296.466,302.934 297.035 C 301.219 297.953,301.000 297.726,301.000 295.035 C 301.000 291.844,300.431 291.441,298.052 292.947 C 297.087 293.557,296.481 296.142,296.236 300.682 C 295.722 310.227,295.735 310.205,291.576 308.467 C 286.682 306.423,284.602 306.622,281.229 309.461 C 277.850 312.304,272.388 313.899,262.500 314.930 C 258.650 315.331,253.845 316.265,251.821 317.005 C 248.837 318.096,247.114 318.120,242.693 317.131 C 239.629 316.445,231.270 315.975,223.597 316.057 C 214.725 316.152,209.474 315.808,208.590 315.074 C 207.517 314.185,206.793 314.685,205.168 317.441 C 202.790 321.470,199.703 322.566,193.690 321.514 C 191.385 321.111,182.300 320.548,173.500 320.262 C 155.941 319.691,154.308 319.679,139.000 320.014 C 116.874 320.498,97.128 320.515,82.500 320.062 C 75.900 319.858,61.281 320.271,50.013 320.981 C 34.651 321.950,28.021 321.995,23.513 321.164 C 20.206 320.554,13.563 319.764,8.750 319.409 L 0.000 318.763 0.000 322.298 C 0.000 324.243,0.563 326.060,1.250 326.338 C 2.250 326.741,2.250 326.858,1.250 326.921 C 0.563 326.964,0.000 327.648,0.000 328.440 C 0.000 329.367,1.335 330.019,3.750 330.272 L 7.500 330.664 3.750 330.832 L 0.000 331.000 0.000 336.000 C 0.000 340.685,0.160 341.000,2.535 341.000 C 3.930 341.000,6.127 340.308,7.418 339.462 C 8.709 338.616,12.631 337.731,16.133 337.495 C 19.635 337.259,25.053 336.774,28.173 336.416 C 32.087 335.967,36.274 336.315,41.673 337.538 C 46.159 338.554,53.847 339.345,59.684 339.391 C 68.963 339.465,70.084 339.270,72.291 337.196 C 75.420 334.257,80.846 333.367,83.500 335.357 C 85.431 336.805,85.435 336.882,83.626 337.583 C 82.344 338.080,81.445 337.760,80.779 336.570 C 79.877 334.957,79.701 334.983,78.345 336.918 C 77.542 338.065,77.137 339.412,77.445 339.911 C 77.770 340.437,71.635 340.873,62.846 340.947 C 54.509 341.018,47.307 341.310,46.843 341.597 C 46.380 341.883,46.000 343.356,46.000 344.870 C 46.000 347.341,45.481 347.755,40.920 348.924 C 37.245 349.866,33.165 350.004,26.170 349.423 L 16.500 348.621 24.500 347.776 C 28.900 347.311,34.604 347.182,37.176 347.490 C 41.238 347.976,42.059 347.754,43.426 345.802 C 46.490 341.427,45.730 341.013,34.250 340.802 L 23.500 340.605 34.500 340.000 C 45.031 339.421,45.180 339.383,38.000 339.098 C 32.518 338.881,31.173 338.585,33.000 338.000 C 35.050 337.343,34.691 337.194,31.000 337.170 C 27.623 337.148,26.999 337.355,28.500 338.000 C 29.806 338.561,27.030 338.889,20.500 338.945 C 15.000 338.992,9.825 339.501,9.000 340.076 C 7.896 340.845,8.424 340.942,11.000 340.444 C 12.925 340.071,14.270 339.931,13.989 340.133 C 13.708 340.335,11.871 341.978,9.906 343.784 C 6.498 346.917,6.338 346.963,6.417 344.784 C 6.485 342.917,5.907 342.443,3.250 342.187 C 0.347 341.907,0.000 342.147,0.000 344.437 C 0.000 346.547,0.486 347.014,2.750 347.079 L 5.500 347.158 2.750 348.162 L 0.000 349.167 0.000 368.583 L 0.000 388.000 400.000 388.000 L 800.000 388.000 800.000 372.500 L 800.000 357.000 783.750 356.985 C 774.389 356.976,768.071 356.608,768.846 356.116 C 769.587 355.647,776.899 355.394,785.096 355.555 C 799.036 355.828,800.000 355.727,800.000 353.997 C 800.000 352.979,799.212 351.976,798.250 351.768 C 796.052 351.292,767.496 351.947,751.250 352.846 C 744.513 353.218,739.000 353.189,739.000 352.781 C 739.000 351.632,742.430 351.167,756.500 350.409 C 772.591 349.542,773.043 349.545,775.500 350.519 C 777.353 351.254,777.341 351.172,775.335 349.406 C 774.144 348.358,772.344 346.964,771.335 346.309 C 769.692 345.242,769.677 345.111,771.191 345.059 C 772.121 345.026,773.177 345.477,773.537 346.060 C 773.952 346.731,774.708 346.455,775.598 345.310 C 776.565 344.065,776.841 343.978,776.480 345.029 C 776.192 345.869,776.626 347.444,777.446 348.529 C 778.875 350.418,778.938 350.375,778.984 347.500 C 779.015 345.469,779.304 344.931,779.876 345.834 C 780.551 346.899,780.849 346.835,781.356 345.514 C 782.373 342.866,786.451 343.992,786.740 347.000 C 786.977 349.464,786.966 349.467,786.022 347.250 C 784.422 343.492,781.533 344.510,782.085 348.638 C 782.132 348.989,781.570 349.657,780.835 350.123 C 779.997 350.654,781.276 350.975,784.269 350.985 C 788.931 351.000,789.023 350.940,788.373 348.351 C 787.905 346.486,788.048 345.911,788.854 346.410 C 789.484 346.799,790.000 347.766,790.000 348.559 C 790.000 349.586,791.078 349.954,793.750 349.840 C 797.442 349.682,797.450 349.674,794.250 349.277 C 789.230 348.654,790.409 347.137,795.500 347.667 C 800.129 348.150,801.164 347.211,798.470 344.975 C 797.251 343.963,796.394 343.955,794.240 344.937 L 791.539 346.167 793.476 344.027 C 794.739 342.631,796.145 342.071,797.521 342.416 C 799.400 342.888,799.654 342.474,799.854 338.603 L 800.079 334.260 769.789 334.380 C 753.130 334.446,733.200 334.360,725.500 334.189 C 717.800 334.019,710.375 333.895,709.000 333.915 C 687.494 334.224,557.658 331.770,549.500 330.901 C 543.450 330.256,534.459 329.516,529.520 329.256 C 522.790 328.902,519.947 328.317,518.169 326.918 C 516.864 325.892,514.155 324.756,512.149 324.393 C 510.142 324.030,507.203 323.076,505.618 322.273 C 503.628 321.264,501.358 321.019,498.281 321.481 C 495.830 321.848,490.444 322.131,486.313 322.110 C 478.881 322.071,478.750 322.024,474.150 317.797 C 471.592 315.447,467.734 310.904,465.576 307.702 L 461.652 301.880 462.797 293.321 C 463.428 288.604,463.571 284.029,463.115 283.131 C 462.659 282.234,461.715 276.738,461.016 270.917 C 460.133 263.564,459.350 260.333,458.448 260.333 C 457.559 260.333,456.977 262.563,456.599 267.417 M459.430 277.258 C 459.716 281.053,459.517 284.181,458.966 284.521 C 458.376 284.885,458.000 282.109,458.000 277.392 C 458.000 268.113,458.734 268.044,459.430 277.258 M424.742 304.708 C 424.550 308.444,424.390 305.650,424.389 298.500 C 424.387 291.350,424.545 288.294,424.739 291.708 C 424.934 295.123,424.935 300.973,424.742 304.708 M342.725 295.232 C 342.502 297.029,342.315 295.800,342.310 292.500 C 342.304 289.200,342.486 287.729,342.715 289.232 C 342.943 290.735,342.947 293.435,342.725 295.232 M429.124 290.267 C 428.136 291.247,428.022 291.132,428.564 289.707 C 428.940 288.721,429.499 288.166,429.807 288.474 C 430.115 288.781,429.808 289.588,429.124 290.267 M459.667 289.667 C 459.300 290.033,458.700 290.033,458.333 289.667 C 457.967 289.300,458.267 289.000,459.000 289.000 C 459.733 289.000,460.033 289.300,459.667 289.667 M344.725 300.232 C 344.502 302.029,344.315 300.800,344.310 297.500 C 344.304 294.200,344.486 292.729,344.715 294.232 C 344.943 295.735,344.947 298.435,344.725 300.232 M459.900 299.298 C 459.955 300.837,460.900 303.959,462.000 306.236 C 463.771 309.903,463.981 312.211,463.832 326.438 L 463.665 342.500 462.955 332.000 C 462.564 326.225,462.190 319.587,462.123 317.250 C 462.055 314.913,461.573 313.000,461.050 313.000 C 460.506 313.000,459.972 319.421,459.800 328.044 L 459.500 343.088 465.000 342.794 L 470.500 342.500 471.045 337.755 C 471.345 335.145,472.133 332.467,472.795 331.805 C 474.654 329.946,474.235 329.000,471.552 329.000 C 469.313 329.000,469.073 329.447,468.737 334.250 L 468.370 339.500 468.217 334.000 C 468.121 330.553,468.600 327.792,469.500 326.603 C 470.290 325.559,470.699 324.322,470.409 323.853 C 469.275 322.018,471.395 323.134,473.635 325.552 C 474.936 326.955,476.000 329.030,476.000 330.163 C 476.000 331.931,476.461 332.146,479.250 331.684 C 481.038 331.387,483.400 331.531,484.500 332.002 C 485.846 332.579,486.010 332.887,485.000 332.945 C 483.667 333.021,483.667 333.138,485.000 334.000 C 486.050 334.679,484.250 335.013,479.000 335.116 C 473.043 335.233,472.220 335.415,475.000 336.000 C 477.960 336.623,478.115 336.775,476.000 336.987 C 474.625 337.124,473.163 337.184,472.750 337.118 C 471.073 336.854,472.152 338.768,474.250 339.780 C 475.488 340.376,475.882 340.895,475.128 340.932 C 474.021 340.987,473.997 341.291,475.000 342.500 C 477.545 345.566,479.897 343.874,479.519 339.250 C 479.417 338.012,479.672 337.000,480.085 337.000 C 480.498 337.000,481.661 336.741,482.668 336.424 C 484.396 335.882,484.400 335.913,482.729 336.986 C 479.854 338.831,481.750 340.012,487.309 339.837 L 492.500 339.674 487.000 338.924 C 482.501 338.310,483.161 338.225,490.632 338.454 C 496.350 338.630,500.922 339.314,502.864 340.282 C 505.888 341.791,506.028 341.755,508.450 338.877 C 510.367 336.599,510.809 335.190,510.383 332.712 C 509.962 330.261,510.085 329.855,510.900 331.000 C 511.488 331.825,511.976 333.318,511.985 334.317 C 511.996 335.713,512.493 335.978,514.124 335.461 C 517.815 334.289,519.448 334.233,521.336 335.211 C 523.576 336.372,525.029 335.262,522.971 333.961 C 522.162 333.449,521.993 333.024,522.595 333.015 C 523.197 333.007,524.505 333.900,525.500 335.000 C 526.610 336.227,528.580 337.000,530.596 337.000 C 532.403 337.000,534.160 337.450,534.500 338.000 C 534.840 338.550,535.991 339.000,537.059 339.000 C 538.430 339.000,539.000 339.691,539.000 341.353 C 539.000 342.648,539.289 346.473,539.642 349.853 L 540.285 356.000 534.892 355.850 L 529.500 355.700 534.000 355.100 C 538.118 354.551,538.495 354.266,538.438 351.750 C 538.236 342.886,537.922 339.745,537.298 340.369 C 536.912 340.755,536.702 342.648,536.832 344.576 C 537.141 349.158,536.192 350.614,534.402 348.310 C 533.118 346.658,533.048 346.653,533.605 348.250 C 533.940 349.212,533.962 350.000,533.654 350.000 C 532.931 350.000,530.231 344.075,529.818 341.583 C 529.643 340.528,528.938 339.478,528.250 339.250 C 526.603 338.701,526.534 349.256,528.164 352.316 C 529.202 354.265,529.154 354.357,527.720 353.174 C 526.835 352.445,525.926 350.420,525.699 348.674 C 525.421 346.532,525.323 346.882,525.400 349.750 C 525.527 354.451,524.564 355.381,523.589 351.500 C 522.749 348.152,521.141 348.285,521.784 351.649 C 522.133 353.477,521.935 354.078,521.145 353.590 C 520.515 353.200,520.000 352.381,520.000 351.770 C 520.000 351.158,519.372 349.947,518.605 349.079 C 517.838 348.210,516.967 345.250,516.668 342.500 C 516.369 339.750,516.097 337.387,516.062 337.250 C 516.028 337.113,515.293 337.000,514.429 337.000 C 512.367 337.000,509.701 339.706,510.495 340.992 C 510.838 341.547,510.191 342.000,509.059 342.000 C 507.927 342.000,507.000 342.450,507.000 343.000 C 507.000 344.466,504.014 344.223,503.921 342.750 C 503.861 341.793,503.721 341.802,503.324 342.791 C 502.952 343.718,502.274 343.469,500.920 341.907 C 498.932 339.615,499.034 339.615,486.500 341.876 L 482.500 342.597 486.000 343.319 C 487.925 343.716,493.388 344.300,498.139 344.616 C 505.277 345.092,507.232 344.894,509.389 343.481 C 511.607 342.028,512.000 341.995,512.000 343.263 C 512.000 346.906,504.424 349.939,497.084 349.234 C 494.308 348.967,491.523 348.131,490.896 347.375 C 489.643 345.865,484.431 345.494,483.589 346.856 C 483.298 347.326,484.171 347.499,485.528 347.239 C 486.886 346.980,489.106 347.495,490.463 348.384 C 491.820 349.273,494.408 350.007,496.215 350.015 C 498.022 350.024,500.152 350.443,500.948 350.947 C 502.940 352.207,494.382 351.178,490.500 349.690 C 488.850 349.058,485.475 348.442,483.000 348.321 C 480.525 348.201,476.925 347.766,475.000 347.356 L 471.500 346.610 474.500 345.999 C 476.150 345.663,472.014 345.300,465.310 345.192 C 458.605 345.084,451.962 344.556,450.546 344.017 C 448.109 343.091,448.002 343.184,448.549 345.769 C 449.052 348.151,448.977 348.263,447.956 346.647 C 446.586 344.478,446.014 317.618,447.366 318.968 C 447.843 319.443,448.351 324.483,448.496 330.166 C 448.642 335.850,449.152 340.389,449.630 340.253 C 450.109 340.117,450.625 333.962,450.778 326.576 C 451.052 313.295,451.030 313.142,448.778 312.709 C 446.953 312.359,447.097 312.245,449.500 312.135 L 452.500 311.997 452.235 327.249 C 452.048 337.982,452.276 342.056,453.004 341.000 C 453.905 339.694,454.221 339.739,455.452 341.350 C 458.287 345.058,459.000 342.164,459.000 326.941 C 459.000 315.663,459.306 311.996,460.250 311.985 C 461.144 311.974,461.103 311.718,460.105 311.086 C 458.984 310.376,459.082 310.107,460.605 309.717 C 461.647 309.450,459.125 309.244,455.000 309.258 C 449.432 309.277,448.530 309.440,451.500 309.892 C 455.377 310.481,455.489 310.608,455.155 314.000 C 454.684 318.764,454.000 319.159,454.000 314.667 C 454.000 311.143,453.864 311.000,450.500 311.000 C 446.279 311.000,446.080 309.683,449.768 306.151 C 451.290 304.693,453.335 302.248,454.312 300.718 C 455.289 299.188,456.487 298.183,456.975 298.484 C 457.463 298.786,458.187 298.506,458.585 297.862 C 459.070 297.077,458.872 296.961,457.985 297.510 C 457.010 298.112,456.837 297.866,457.330 296.582 C 457.699 295.622,458.045 294.086,458.100 293.168 C 458.246 290.720,459.781 295.946,459.900 299.298 M327.762 293.687 C 326.806 293.937,325.006 293.946,323.762 293.707 C 322.518 293.468,323.300 293.263,325.500 293.252 C 327.700 293.241,328.718 293.437,327.762 293.687 M421.718 299.736 C 421.488 301.256,421.294 300.250,421.286 297.500 C 421.279 294.750,421.467 293.506,421.704 294.736 C 421.941 295.966,421.947 298.216,421.718 299.736 M327.274 296.291 C 325.530 297.069,325.023 298.285,324.733 302.382 L 324.370 307.500 324.185 301.888 C 324.009 296.533,323.885 296.288,321.495 296.550 C 320.117 296.701,319.175 296.527,319.400 296.162 C 319.625 295.798,321.979 295.459,324.631 295.410 C 328.535 295.336,329.038 295.504,327.274 296.291 M350.000 295.500 C 350.000 295.775,349.775 296.000,349.500 296.000 C 349.225 296.000,349.000 295.775,349.000 295.500 C 349.000 295.225,349.225 295.000,349.500 295.000 C 349.775 295.000,350.000 295.225,350.000 295.500 M310.250 298.662 C 309.563 298.940,308.438 298.940,307.750 298.662 C 307.063 298.385,307.625 298.158,309.000 298.158 C 310.375 298.158,310.938 298.385,310.250 298.662 M323.000 298.500 C 323.000 298.775,322.775 299.000,322.500 299.000 C 322.225 299.000,322.000 298.775,322.000 298.500 C 322.000 298.225,322.225 298.000,322.500 298.000 C 322.775 298.000,323.000 298.225,323.000 298.500 M327.667 298.667 C 327.300 299.033,326.700 299.033,326.333 298.667 C 325.967 298.300,326.267 298.000,327.000 298.000 C 327.733 298.000,328.033 298.300,327.667 298.667 M301.000 300.500 C 301.000 300.775,300.775 301.000,300.500 301.000 C 300.225 301.000,300.000 300.775,300.000 300.500 C 300.000 300.225,300.225 300.000,300.500 300.000 C 300.775 300.000,301.000 300.225,301.000 300.500 M327.345 308.234 C 326.404 312.479,326.399 312.469,326.440 306.206 C 326.471 301.600,326.724 300.456,327.386 301.940 C 327.931 303.161,327.915 305.664,327.345 308.234 M350.718 319.000 L 350.633 327.500 350.000 319.500 L 349.367 311.500 349.199 319.500 C 349.000 328.934,349.914 331.293,352.768 328.710 C 353.807 327.770,355.297 327.032,356.079 327.070 C 356.934 327.113,356.704 327.493,355.500 328.025 C 353.929 328.720,354.297 328.876,357.215 328.753 C 359.258 328.667,361.245 328.912,361.631 329.298 C 362.017 329.684,360.121 330.067,357.417 330.150 C 354.355 330.243,353.632 330.441,355.500 330.674 C 362.676 331.570,363.141 331.863,362.811 335.284 C 362.514 338.358,362.301 338.506,358.000 338.643 L 353.500 338.786 357.500 338.035 L 361.500 337.284 357.500 337.000 L 353.500 336.716 357.500 336.000 C 361.352 335.310,361.380 335.279,358.250 335.142 C 356.462 335.064,354.663 334.887,354.250 334.750 C 353.837 334.613,353.360 335.850,353.189 337.500 C 353.019 339.150,352.448 342.152,351.922 344.171 L 350.966 347.842 338.233 348.217 C 331.230 348.423,324.788 348.928,323.917 349.339 C 322.852 349.841,322.279 349.581,322.167 348.543 C 322.075 347.694,321.925 346.325,321.833 345.500 C 321.606 343.456,320.268 343.606,319.609 345.750 C 319.314 346.712,319.244 346.375,319.454 345.000 C 319.894 342.118,322.427 334.868,324.518 330.500 L 325.954 327.500 325.977 330.191 C 325.990 331.671,325.611 333.123,325.135 333.417 C 324.221 333.981,324.438 338.771,325.422 339.755 C 325.740 340.073,326.007 339.246,326.015 337.917 C 326.027 336.023,326.233 335.821,326.968 336.983 C 327.592 337.969,327.798 336.293,327.585 331.983 C 327.255 325.312,327.622 323.000,329.013 323.000 C 329.452 323.000,329.563 328.400,329.259 335.000 C 328.859 343.681,329.023 347.000,329.853 347.000 C 330.522 347.000,331.037 345.229,331.088 342.750 C 331.136 340.413,331.538 336.250,331.982 333.500 C 332.675 329.210,332.769 329.777,332.645 337.500 L 332.500 346.500 340.345 346.794 C 345.268 346.978,348.713 346.653,349.595 345.921 C 351.538 344.309,351.492 333.032,349.532 330.441 C 347.877 328.254,347.622 321.107,348.731 308.000 L 349.450 299.500 350.126 305.000 C 350.498 308.025,350.764 314.325,350.718 319.000 M447.500 301.000 C 447.160 301.550,446.009 302.000,444.941 302.000 C 443.123 302.000,443.000 302.793,443.000 314.500 C 443.000 322.631,442.630 327.000,441.941 327.000 C 441.359 327.000,441.112 326.627,441.394 326.171 C 441.676 325.715,441.975 319.640,442.060 312.671 L 442.213 300.000 445.166 300.000 C 446.879 300.000,447.859 300.420,447.500 301.000 M456.000 302.667 C 456.000 304.133,456.309 305.024,456.687 304.646 C 457.693 303.641,457.807 300.000,456.833 300.000 C 456.375 300.000,456.000 301.200,456.000 302.667 M317.750 301.689 C 316.788 301.941,315.212 301.941,314.250 301.689 C 313.288 301.438,314.075 301.232,316.000 301.232 C 317.925 301.232,318.712 301.438,317.750 301.689 M450.000 302.559 C 450.000 303.416,449.543 303.835,448.984 303.490 C 448.425 303.144,448.226 302.443,448.543 301.931 C 449.400 300.544,450.000 300.802,450.000 302.559 M321.344 303.250 C 320.918 303.938,320.273 306.300,319.910 308.500 L 319.250 312.500 319.125 307.917 C 319.001 303.383,319.492 302.000,321.226 302.000 C 321.716 302.000,321.770 302.563,321.344 303.250 M358.000 313.433 C 358.000 316.944,358.511 319.179,359.500 320.000 C 360.325 320.685,361.000 322.090,361.000 323.122 C 361.000 324.707,361.742 324.988,365.750 324.921 C 370.597 324.840,370.597 324.638,365.750 323.568 C 364.238 323.235,363.000 322.295,363.000 321.481 C 363.000 320.356,364.143 320.042,367.750 320.175 L 372.500 320.349 368.227 320.733 C 363.543 321.154,363.366 323.000,368.009 323.000 C 369.656 323.000,371.298 323.710,371.824 324.650 C 372.421 325.716,373.499 326.103,374.874 325.743 C 377.422 325.077,377.505 325.352,375.394 327.463 C 374.069 328.788,373.511 328.845,372.202 327.785 C 371.071 326.868,370.826 326.849,371.347 327.717 C 372.273 329.261,371.027 339.000,369.903 339.000 C 369.441 339.000,369.350 338.251,369.701 337.336 C 370.131 336.217,369.957 335.909,369.170 336.395 C 367.677 337.318,367.620 334.780,369.101 333.299 C 369.754 332.646,369.925 330.937,369.522 329.099 C 368.809 325.856,366.156 324.983,363.026 326.963 C 361.352 328.021,360.040 326.590,360.015 323.679 C 360.007 322.677,359.325 321.182,358.500 320.357 C 357.544 319.402,357.000 316.936,357.000 313.563 C 357.000 309.771,356.405 307.452,354.902 305.385 L 352.805 302.500 355.402 305.306 C 357.522 307.596,358.000 309.090,358.000 313.433 M297.963 317.472 C 297.241 324.362,296.320 330.000,295.918 330.000 C 295.516 330.000,295.409 329.151,295.681 328.113 C 295.952 327.075,295.685 325.923,295.087 325.554 C 294.489 325.184,294.068 322.771,294.150 320.191 L 294.300 315.500 295.000 320.000 C 295.675 324.341,295.708 324.377,295.932 321.000 C 296.060 319.075,296.363 316.150,296.606 314.500 C 296.937 312.250,296.795 311.875,296.039 313.000 C 295.330 314.055,295.026 314.120,295.015 313.219 C 295.007 312.514,295.675 311.678,296.500 311.362 C 297.445 310.999,298.000 309.468,298.000 307.226 C 298.000 305.269,298.287 303.954,298.639 304.305 C 298.990 304.657,298.686 310.582,297.963 317.472 M448.000 304.500 C 448.000 304.775,447.775 305.000,447.500 305.000 C 447.225 305.000,447.000 304.775,447.000 304.500 C 447.000 304.225,447.225 304.000,447.500 304.000 C 447.775 304.000,448.000 304.225,448.000 304.500 M314.718 311.736 C 314.488 313.256,314.294 312.250,314.286 309.500 C 314.279 306.750,314.467 305.506,314.704 306.736 C 314.941 307.966,314.947 310.216,314.718 311.736 M312.000 306.500 C 312.000 306.775,311.775 307.000,311.500 307.000 C 311.225 307.000,311.000 306.775,311.000 306.500 C 311.000 306.225,311.225 306.000,311.500 306.000 C 311.775 306.000,312.000 306.225,312.000 306.500 M341.689 310.750 C 341.438 311.712,341.232 310.925,341.232 309.000 C 341.232 307.075,341.438 306.288,341.689 307.250 C 341.941 308.212,341.941 309.788,341.689 310.750 M441.000 306.500 C 441.000 306.775,440.775 307.000,440.500 307.000 C 440.225 307.000,440.000 306.775,440.000 306.500 C 440.000 306.225,440.225 306.000,440.500 306.000 C 440.775 306.000,441.000 306.225,441.000 306.500 M344.716 314.750 C 344.487 316.262,344.300 315.025,344.300 312.000 C 344.300 308.975,344.487 307.738,344.716 309.250 C 344.945 310.762,344.945 313.238,344.716 314.750 M437.291 308.795 C 439.165 308.437,439.632 308.824,439.802 310.876 C 439.984 313.083,439.854 313.194,438.755 311.769 C 438.065 310.874,436.410 309.997,435.078 309.821 C 433.746 309.644,432.436 308.825,432.166 308.000 C 431.745 306.716,431.913 306.697,433.332 307.868 C 434.243 308.620,436.025 309.037,437.291 308.795 M304.000 308.500 C 304.000 308.775,303.775 309.000,303.500 309.000 C 303.225 309.000,303.000 308.775,303.000 308.500 C 303.000 308.225,303.225 308.000,303.500 308.000 C 303.775 308.000,304.000 308.225,304.000 308.500 M310.729 308.604 C 310.397 308.936,309.534 308.972,308.813 308.683 C 308.015 308.364,308.252 308.127,309.417 308.079 C 310.471 308.036,311.061 308.272,310.729 308.604 M324.104 316.616 C 324.040 320.867,323.766 324.567,323.494 324.839 C 323.222 325.111,323.000 321.358,323.000 316.500 C 323.000 311.642,323.275 307.941,323.610 308.277 C 323.946 308.613,324.168 312.365,324.104 316.616 M356.000 311.559 C 356.000 312.902,355.632 314.000,355.182 314.000 C 354.732 314.000,354.364 312.674,354.364 311.053 C 354.364 309.433,354.732 308.334,355.182 308.612 C 355.632 308.890,356.000 310.216,356.000 311.559 M310.250 310.662 C 309.563 310.940,308.438 310.940,307.750 310.662 C 307.063 310.385,307.625 310.158,309.000 310.158 C 310.375 310.158,310.938 310.385,310.250 310.662 M307.000 313.000 C 306.175 313.533,304.150 313.917,302.500 313.853 C 299.534 313.738,299.540 313.728,303.000 313.000 C 308.112 311.924,308.665 311.924,307.000 313.000 M309.636 314.506 C 308.060 315.328,305.810 315.975,304.636 315.944 C 303.080 315.902,303.450 315.528,306.000 314.563 C 310.840 312.732,313.106 312.696,309.636 314.506 M320.000 313.500 C 320.000 313.775,319.775 314.000,319.500 314.000 C 319.225 314.000,319.000 313.775,319.000 313.500 C 319.000 313.225,319.225 313.000,319.500 313.000 C 319.775 313.000,320.000 313.225,320.000 313.500 M428.729 313.604 C 428.397 313.936,427.534 313.972,426.813 313.683 C 426.015 313.364,426.252 313.127,427.417 313.079 C 428.471 313.036,429.061 313.272,428.729 313.604 M440.847 317.250 C 440.506 320.902,439.492 321.962,436.323 321.985 C 435.107 321.993,433.937 322.772,433.672 323.750 C 433.411 324.712,433.249 324.038,433.311 322.250 C 433.416 319.266,433.694 319.000,436.713 319.000 C 439.552 319.000,440.000 318.660,440.000 316.500 C 440.000 315.125,440.259 314.000,440.575 314.000 C 440.892 314.000,441.014 315.462,440.847 317.250 M396.215 319.750 C 395.697 327.967,395.277 328.745,395.136 321.750 C 395.061 318.038,395.341 315.000,395.757 315.000 C 396.174 315.000,396.380 317.137,396.215 319.750 M404.653 319.461 C 404.356 320.236,404.650 321.063,405.306 321.298 C 405.963 321.534,406.201 322.049,405.836 322.444 C 404.696 323.676,401.029 321.087,401.644 319.485 C 402.002 318.551,401.617 318.000,400.607 318.000 C 399.293 318.000,399.016 319.140,399.088 324.250 C 399.136 327.688,399.526 332.750,399.954 335.500 L 400.733 340.500 401.016 336.500 C 401.254 333.144,401.368 332.958,401.726 335.348 C 402.122 337.998,402.422 338.170,406.050 337.824 C 410.818 337.369,409.884 338.683,405.000 339.300 C 403.075 339.543,406.000 339.772,411.500 339.809 C 417.000 339.846,422.063 339.904,422.750 339.938 C 423.448 339.973,424.000 341.278,424.000 342.893 C 424.000 346.571,425.198 347.000,435.459 347.000 C 441.205 347.000,444.100 347.415,444.876 348.350 C 445.797 349.461,444.368 349.816,436.832 350.351 C 431.792 350.709,427.443 350.776,427.168 350.501 C 426.892 350.225,428.392 350.000,430.500 350.000 C 432.608 350.000,434.012 349.679,433.619 349.286 C 433.227 348.893,428.156 348.473,422.351 348.351 C 416.547 348.230,411.982 348.316,412.208 348.542 C 412.434 348.767,414.392 349.406,416.559 349.961 L 420.500 350.969 416.500 350.379 C 414.300 350.054,410.475 349.485,408.000 349.113 L 403.500 348.438 409.000 347.728 C 412.025 347.337,416.525 346.960,419.000 346.890 C 423.121 346.774,423.247 346.699,420.500 346.000 C 413.278 344.162,403.531 345.374,400.136 348.531 C 399.015 349.574,399.429 349.800,402.452 349.800 C 404.477 349.800,406.403 350.070,406.733 350.400 C 407.063 350.730,402.646 350.993,396.917 350.985 C 385.363 350.968,379.653 349.524,376.695 345.872 L 374.795 343.525 375.008 346.012 C 375.426 350.882,375.273 351.009,369.250 350.815 L 363.500 350.630 368.616 350.267 L 373.733 349.905 374.358 344.702 C 374.701 341.841,375.068 337.025,375.171 334.000 C 375.351 328.768,375.392 328.866,376.000 336.000 L 376.640 343.500 376.820 335.050 C 376.960 328.478,377.267 326.867,378.200 327.800 C 378.860 328.460,380.323 329.045,381.450 329.100 C 383.166 329.183,383.093 329.312,381.000 329.893 C 378.640 330.547,378.490 331.004,378.330 338.043 C 378.236 342.144,378.387 344.935,378.665 344.244 C 378.943 343.553,379.488 343.184,379.876 343.424 C 380.265 343.663,380.473 342.204,380.340 340.180 C 380.152 337.310,380.253 337.050,380.799 339.000 C 381.556 341.699,384.000 342.908,384.000 340.583 C 384.000 339.804,383.438 338.940,382.750 338.662 C 382.063 338.385,382.625 338.091,384.000 338.009 C 386.306 337.871,386.345 337.793,384.500 337.000 C 382.602 336.184,382.616 336.137,384.781 336.070 C 386.036 336.032,387.321 335.328,387.636 334.506 C 387.952 333.684,388.655 333.287,389.200 333.623 C 389.825 334.010,390.063 331.982,389.845 328.116 C 389.655 324.750,389.837 321.997,390.250 321.998 C 391.358 322.001,391.163 333.781,390.044 334.473 C 389.518 334.798,389.335 335.837,389.638 336.782 C 390.106 338.241,390.026 338.274,389.110 337.000 C 387.353 334.557,387.722 341.562,389.536 345.069 C 391.005 347.910,390.972 348.075,388.790 348.882 C 387.058 349.523,387.886 349.757,392.228 349.857 C 397.897 349.988,397.938 349.968,397.018 347.548 C 396.239 345.498,396.432 344.998,398.221 344.430 C 399.393 344.058,402.382 343.794,404.863 343.844 C 407.344 343.894,409.971 343.439,410.701 342.833 C 411.502 342.168,413.805 341.976,416.514 342.347 C 419.022 342.691,421.000 342.556,421.000 342.042 C 421.000 341.537,416.275 341.142,410.500 341.166 C 403.786 341.194,400.000 341.593,400.000 342.271 C 400.000 344.068,398.883 342.337,397.452 338.324 L 396.088 334.500 396.044 337.917 C 396.020 339.796,395.715 341.048,395.366 340.699 C 394.582 339.915,393.963 336.044,393.575 329.500 C 393.369 326.017,393.407 325.820,393.699 328.852 C 394.107 333.088,394.169 333.157,396.059 331.447 C 397.592 330.059,398.000 328.356,398.000 323.345 C 398.000 317.667,398.210 317.000,400.000 317.000 C 401.100 317.000,402.000 316.518,402.000 315.929 C 402.000 315.339,402.719 315.576,403.597 316.454 C 404.476 317.333,404.951 318.686,404.653 319.461 M447.667 316.667 C 447.300 317.033,447.000 316.733,447.000 316.000 C 447.000 315.267,447.300 314.967,447.667 315.333 C 448.033 315.700,448.033 316.300,447.667 316.667 M310.427 318.118 C 310.010 318.793,306.000 318.138,306.000 317.395 C 306.000 317.190,307.093 317.113,308.428 317.223 C 309.763 317.334,310.663 317.737,310.427 318.118 M345.175 318.491 C 345.446 318.221,345.667 318.675,345.667 319.500 C 345.667 321.707,344.244 321.326,342.871 318.750 C 341.826 316.789,341.866 316.659,343.178 317.741 C 344.006 318.424,344.905 318.762,345.175 318.491 M466.879 329.000 C 466.397 329.884,466.106 327.624,466.171 323.500 L 466.282 316.500 466.989 322.000 C 467.378 325.025,467.329 328.175,466.879 329.000 M221.264 318.704 C 220.034 318.941,217.784 318.947,216.264 318.718 C 214.744 318.488,215.750 318.294,218.500 318.286 C 221.250 318.279,222.494 318.467,221.264 318.704 M313.716 325.750 C 313.487 327.262,313.300 326.025,313.300 323.000 C 313.300 319.975,313.487 318.738,313.716 320.250 C 313.945 321.762,313.945 324.238,313.716 325.750 M232.000 319.306 C 232.000 320.654,227.232 325.588,226.250 325.256 C 225.433 324.980,225.000 325.877,225.000 327.845 C 225.000 331.615,222.666 334.036,219.179 333.882 L 216.500 333.763 219.429 333.132 C 221.540 332.676,222.566 331.716,223.108 329.691 C 223.875 326.820,223.676 326.599,219.500 325.675 C 218.301 325.409,218.826 325.186,220.809 325.116 C 222.773 325.047,223.863 324.587,223.490 323.984 C 223.144 323.425,222.448 323.223,221.942 323.536 C 221.437 323.848,221.291 323.406,221.618 322.552 C 222.339 320.674,223.189 320.595,224.867 322.250 C 225.882 323.251,226.370 323.184,227.317 321.912 C 227.968 321.039,229.175 320.062,230.000 319.741 C 232.027 318.953,232.000 318.959,232.000 319.306 M257.570 324.579 C 257.071 326.563,256.331 327.000,253.462 327.000 C 250.153 327.000,249.997 326.850,250.610 324.250 C 251.434 320.754,251.940 320.244,255.000 319.835 C 257.772 319.464,258.511 320.828,257.570 324.579 M353.689 323.750 C 353.438 324.712,353.232 323.925,353.232 322.000 C 353.232 320.075,353.438 319.288,353.689 320.250 C 353.941 321.212,353.941 322.788,353.689 323.750 M468.689 323.750 C 468.438 324.712,468.232 323.925,468.232 322.000 C 468.232 320.075,468.438 319.288,468.689 320.250 C 468.941 321.212,468.941 322.788,468.689 323.750 M219.000 322.165 C 217.625 323.320,216.575 324.543,216.667 324.883 C 216.759 325.223,214.819 325.341,212.357 325.145 C 208.003 324.799,207.929 324.736,209.630 322.857 C 210.900 321.452,212.136 321.091,214.151 321.533 C 215.676 321.868,217.728 321.674,218.712 321.101 C 221.575 319.435,221.700 319.898,219.000 322.165 M227.000 320.500 C 227.000 320.775,226.775 321.000,226.500 321.000 C 226.225 321.000,226.000 320.775,226.000 320.500 C 226.000 320.225,226.225 320.000,226.500 320.000 C 226.775 320.000,227.000 320.225,227.000 320.500 M246.510 320.892 C 242.235 321.543,240.382 324.442,243.693 325.300 C 245.123 325.670,245.030 325.792,243.250 325.884 C 241.526 325.973,241.000 325.454,241.000 323.667 C 241.000 320.448,241.720 319.979,246.417 320.142 L 250.500 320.284 246.510 320.892 M274.363 322.278 C 274.288 323.213,274.594 323.751,275.044 323.473 C 275.494 323.195,276.115 323.378,276.425 323.879 C 277.070 324.922,274.760 326.000,271.883 326.000 C 270.251 326.000,270.103 325.677,270.981 324.035 C 271.967 322.193,271.815 322.208,268.535 324.285 C 266.067 325.849,264.709 327.676,263.919 330.500 C 261.842 337.919,261.165 339.000,258.595 339.000 C 257.104 339.000,255.968 339.684,255.689 340.750 C 255.438 341.712,255.258 339.575,255.291 336.000 C 255.331 331.594,255.473 330.869,255.732 333.750 C 256.069 337.486,256.411 338.000,258.557 338.000 C 260.299 338.000,261.000 337.449,261.000 336.082 C 261.000 335.027,261.301 333.378,261.670 332.418 C 262.127 331.227,261.968 330.902,261.170 331.395 C 260.526 331.793,260.000 333.216,260.000 334.559 C 260.000 336.044,259.422 337.000,258.525 337.000 C 257.398 337.000,257.199 336.234,257.682 333.750 C 258.030 331.962,258.607 330.275,258.965 330.000 C 259.323 329.725,260.321 328.469,261.182 327.208 C 262.946 324.625,270.711 320.160,273.000 320.412 C 273.825 320.502,274.438 321.342,274.363 322.278 M311.667 320.667 C 311.300 321.033,310.700 321.033,310.333 320.667 C 309.967 320.300,310.267 320.000,311.000 320.000 C 311.733 320.000,312.033 320.300,311.667 320.667 M343.666 330.388 C 348.260 336.259,349.054 337.881,348.800 340.877 L 348.500 344.420 343.251 344.460 L 338.002 344.500 338.031 339.000 C 338.054 334.777,338.297 333.906,339.080 335.250 C 340.089 336.983,347.031 337.862,346.973 336.250 C 346.959 335.837,345.231 333.629,343.134 331.342 C 340.378 328.336,338.930 327.431,337.911 328.076 C 337.135 328.568,335.825 328.956,335.000 328.940 C 334.175 328.923,334.834 328.341,336.463 327.646 C 338.435 326.805,339.021 326.131,338.213 325.632 C 337.546 325.219,337.052 323.671,337.116 322.191 C 337.205 320.126,337.348 319.958,337.732 321.471 C 338.007 322.555,340.677 326.568,343.666 330.388 M342.511 323.000 L 344.500 325.500 342.250 323.595 C 341.012 322.547,340.000 321.235,340.000 320.678 C 340.000 320.122,340.117 319.854,340.261 320.083 C 340.404 320.313,341.417 321.625,342.511 323.000 M389.802 320.679 C 388.576 321.002,388.014 322.428,387.778 325.813 C 387.482 330.049,387.371 330.235,386.617 327.750 C 385.347 323.563,386.593 319.977,389.269 320.116 C 390.879 320.200,391.027 320.357,389.802 320.679 M474.000 320.500 C 474.000 320.775,473.775 321.000,473.500 321.000 C 473.225 321.000,473.000 320.775,473.000 320.500 C 473.000 320.225,473.225 320.000,473.500 320.000 C 473.775 320.000,474.000 320.225,474.000 320.500 M159.473 322.956 C 159.798 323.482,160.725 323.659,161.532 323.349 C 162.339 323.040,163.005 322.947,163.011 323.143 C 163.017 323.339,163.670 325.637,164.463 328.250 C 166.049 333.477,165.534 334.831,163.825 329.929 C 162.545 326.256,160.003 325.168,154.126 325.779 C 150.923 326.112,149.620 326.736,149.261 328.109 C 148.960 329.263,147.275 330.387,144.885 331.031 C 142.748 331.606,141.000 332.438,141.000 332.880 C 141.000 333.322,138.637 333.762,135.750 333.860 C 132.863 333.957,126.904 334.714,122.508 335.543 C 117.183 336.547,114.401 336.704,114.171 336.013 C 113.981 335.443,112.950 334.509,111.881 333.936 C 110.145 333.007,110.003 333.162,110.559 335.378 C 111.112 337.581,110.924 337.793,108.894 337.262 C 106.809 336.717,106.773 336.606,108.487 336.004 C 112.551 334.579,107.988 334.112,102.879 335.431 C 99.921 336.194,96.375 337.024,95.000 337.273 C 93.571 337.533,94.642 337.811,97.500 337.921 C 100.250 338.028,104.300 338.488,106.500 338.943 C 110.083 339.684,110.187 339.783,107.500 339.892 C 105.850 339.959,101.350 340.214,97.500 340.459 C 92.108 340.802,91.304 340.700,94.000 340.015 C 96.893 339.279,96.460 339.195,91.500 339.527 C 88.200 339.748,83.974 340.231,82.108 340.599 C 79.698 341.075,78.919 340.940,79.417 340.134 C 79.803 339.510,81.246 339.000,82.625 339.000 C 84.003 339.000,86.114 338.471,87.316 337.825 C 89.743 336.519,94.502 335.363,103.500 333.892 C 110.330 332.775,109.698 332.791,117.000 333.553 C 120.025 333.868,125.646 333.760,129.491 333.313 C 136.242 332.528,136.500 332.397,137.008 329.500 C 137.505 326.662,137.790 326.500,142.280 326.500 C 145.667 326.500,146.888 326.142,146.544 325.250 C 146.279 324.563,146.499 324.000,147.031 324.000 C 147.564 324.000,148.018 324.788,148.040 325.750 C 148.069 326.998,148.508 326.711,149.572 324.750 C 150.807 322.473,151.737 322.000,154.973 322.000 C 157.123 322.000,159.148 322.430,159.473 322.956 M252.750 322.662 C 253.438 322.940,254.563 322.940,255.250 322.662 C 255.938 322.385,255.375 322.158,254.000 322.158 C 252.625 322.158,252.063 322.385,252.750 322.662 M476.000 323.500 C 476.718 324.365,476.815 325.000,476.229 325.000 C 475.671 325.000,474.955 324.325,474.638 323.500 C 474.322 322.675,474.219 322.000,474.409 322.000 C 474.599 322.000,475.315 322.675,476.000 323.500 M166.000 324.000 C 166.000 324.550,165.802 325.000,165.559 325.000 C 165.316 325.000,164.840 324.550,164.500 324.000 C 164.160 323.450,164.359 323.000,164.941 323.000 C 165.523 323.000,166.000 323.450,166.000 324.000 M168.000 323.500 C 168.000 323.775,167.775 324.000,167.500 324.000 C 167.225 324.000,167.000 323.775,167.000 323.500 C 167.000 323.225,167.225 323.000,167.500 323.000 C 167.775 323.000,168.000 323.225,168.000 323.500 M244.000 323.500 C 244.000 323.775,243.775 324.000,243.500 324.000 C 243.225 324.000,243.000 323.775,243.000 323.500 C 243.000 323.225,243.225 323.000,243.500 323.000 C 243.775 323.000,244.000 323.225,244.000 323.500 M441.000 323.500 C 441.000 323.775,440.775 324.000,440.500 324.000 C 440.225 324.000,440.000 323.775,440.000 323.500 C 440.000 323.225,440.225 323.000,440.500 323.000 C 440.775 323.000,441.000 323.225,441.000 323.500 M151.000 324.500 C 151.000 324.775,151.225 325.000,151.500 325.000 C 151.775 325.000,152.000 324.775,152.000 324.500 C 152.000 324.225,151.775 324.000,151.500 324.000 C 151.225 324.000,151.000 324.225,151.000 324.500 M232.000 324.500 C 232.000 324.775,231.775 325.000,231.500 325.000 C 231.225 325.000,231.000 324.775,231.000 324.500 C 231.000 324.225,231.225 324.000,231.500 324.000 C 231.775 324.000,232.000 324.225,232.000 324.500 M319.000 324.500 C 319.000 324.775,318.775 325.000,318.500 325.000 C 318.225 325.000,318.000 324.775,318.000 324.500 C 318.000 324.225,318.225 324.000,318.500 324.000 C 318.775 324.000,319.000 324.225,319.000 324.500 M400.689 328.750 C 400.438 329.712,400.232 328.925,400.232 327.000 C 400.232 325.075,400.438 324.288,400.689 325.250 C 400.941 326.212,400.941 327.788,400.689 328.750 M490.000 324.500 C 490.000 324.775,489.775 325.000,489.500 325.000 C 489.225 325.000,489.000 324.775,489.000 324.500 C 489.000 324.225,489.225 324.000,489.500 324.000 C 489.775 324.000,490.000 324.225,490.000 324.500 M493.000 324.500 C 493.000 324.775,492.775 325.000,492.500 325.000 C 492.225 325.000,492.000 324.775,492.000 324.500 C 492.000 324.225,492.225 324.000,492.500 324.000 C 492.775 324.000,493.000 324.225,493.000 324.500 M501.352 327.184 C 501.931 327.560,502.846 327.595,503.386 327.262 C 503.926 326.928,503.497 326.273,502.434 325.807 C 500.945 325.154,501.075 325.096,503.000 325.554 C 504.375 325.881,507.750 326.403,510.500 326.714 C 516.472 327.390,521.816 331.078,519.549 332.959 C 518.467 333.858,518.035 333.685,517.551 332.160 C 516.545 328.992,511.848 327.676,504.393 328.475 C 499.221 329.028,497.937 328.911,498.539 327.937 C 499.036 327.132,498.900 326.944,498.155 327.405 C 497.520 327.797,497.000 329.576,497.000 331.359 C 497.000 335.105,495.467 337.027,492.550 336.937 C 490.616 336.877,490.627 336.822,492.750 335.969 C 494.454 335.284,495.000 334.254,495.000 331.721 C 495.000 327.996,499.013 322.497,499.844 325.083 C 500.095 325.862,500.773 326.808,501.352 327.184 M181.500 325.943 L 185.500 326.770 181.000 326.870 C 178.525 326.925,175.825 326.533,175.000 326.000 C 173.761 325.199,173.848 325.038,175.500 325.073 C 176.600 325.096,179.300 325.488,181.500 325.943 M193.750 325.689 C 192.775 325.944,192.000 327.089,192.000 328.273 C 192.000 329.736,191.678 330.078,190.967 329.367 C 189.381 327.781,190.953 324.986,193.357 325.116 C 195.047 325.208,195.130 325.329,193.750 325.689 M235.500 326.000 C 235.840 326.550,235.641 327.000,235.059 327.000 C 234.477 327.000,234.000 326.550,234.000 326.000 C 234.000 325.450,234.198 325.000,234.441 325.000 C 234.684 325.000,235.160 325.450,235.500 326.000 M254.000 325.500 C 254.000 325.775,254.225 326.000,254.500 326.000 C 254.775 326.000,255.000 325.775,255.000 325.500 C 255.000 325.225,254.775 325.000,254.500 325.000 C 254.225 325.000,254.000 325.225,254.000 325.500 M357.729 325.604 C 357.397 325.936,356.534 325.972,355.813 325.683 C 355.015 325.364,355.252 325.127,356.417 325.079 C 357.471 325.036,358.061 325.272,357.729 325.604 M439.362 326.500 C 439.045 327.325,438.609 328.000,438.393 328.000 C 438.177 328.000,438.000 327.325,438.000 326.500 C 438.000 325.675,438.436 325.000,438.969 325.000 C 439.501 325.000,439.678 325.675,439.362 326.500 M480.729 325.604 C 480.397 325.936,479.534 325.972,478.813 325.683 C 478.015 325.364,478.252 325.127,479.417 325.079 C 480.471 325.036,481.061 325.272,480.729 325.604 M239.729 326.604 C 239.397 326.936,238.534 326.972,237.813 326.683 C 237.015 326.364,237.252 326.127,238.417 326.079 C 239.471 326.036,240.061 326.272,239.729 326.604 M433.725 334.232 C 433.502 336.029,433.315 334.800,433.310 331.500 C 433.304 328.200,433.486 326.729,433.715 328.232 C 433.943 329.735,433.947 332.435,433.725 334.232 M488.000 327.500 C 488.785 328.446,488.852 329.000,488.181 329.000 C 487.597 329.000,486.835 328.543,486.490 327.984 C 486.144 327.425,485.443 327.226,484.931 327.543 C 484.419 327.859,484.000 327.641,484.000 327.059 C 484.000 325.492,486.568 325.775,488.000 327.500 M139.667 327.667 C 139.300 328.033,139.000 329.097,139.000 330.030 C 139.000 331.597,139.348 331.611,143.576 330.219 C 146.758 329.172,147.749 328.456,146.826 327.872 C 145.236 326.863,140.602 326.731,139.667 327.667 M219.227 327.733 C 216.877 327.944,215.216 328.541,215.536 329.059 C 215.860 329.583,214.208 330.078,211.809 330.177 C 208.524 330.311,209.163 330.513,214.500 331.026 L 221.500 331.698 214.500 331.599 C 207.502 331.500,205.249 329.963,210.719 329.021 C 212.296 328.749,210.036 328.287,205.500 327.954 C 198.707 327.455,199.462 327.365,210.500 327.358 C 217.650 327.353,221.577 327.522,219.227 327.733 M232.683 329.188 C 232.364 329.985,232.127 329.748,232.079 328.583 C 232.036 327.529,232.272 326.939,232.604 327.271 C 232.936 327.603,232.972 328.466,232.683 329.188 M245.729 327.604 C 245.397 327.936,244.534 327.972,243.813 327.683 C 243.015 327.364,243.252 327.127,244.417 327.079 C 245.471 327.036,246.061 327.272,245.729 327.604 M266.667 328.667 C 266.300 329.033,266.000 328.733,266.000 328.000 C 266.000 327.267,266.300 326.967,266.667 327.333 C 267.033 327.700,267.033 328.300,266.667 328.667 M276.000 327.500 C 276.000 327.775,275.775 328.000,275.500 328.000 C 275.225 328.000,275.000 327.775,275.000 327.500 C 275.000 327.225,275.225 327.000,275.500 327.000 C 275.775 327.000,276.000 327.225,276.000 327.500 M305.000 327.441 C 305.000 327.684,304.550 328.160,304.000 328.500 C 303.450 328.840,303.000 328.641,303.000 328.059 C 303.000 327.477,303.450 327.000,304.000 327.000 C 304.550 327.000,305.000 327.198,305.000 327.441 M319.000 327.500 C 319.000 327.775,318.775 328.000,318.500 328.000 C 318.225 328.000,318.000 327.775,318.000 327.500 C 318.000 327.225,318.225 327.000,318.500 327.000 C 318.775 327.000,319.000 327.225,319.000 327.500 M368.000 327.500 C 368.000 327.775,367.775 328.000,367.500 328.000 C 367.225 328.000,367.000 327.775,367.000 327.500 C 367.000 327.225,367.225 327.000,367.500 327.000 C 367.775 327.000,368.000 327.225,368.000 327.500 M416.404 338.288 C 419.294 338.654,419.252 338.691,415.785 338.840 C 411.070 339.043,409.662 336.806,410.714 330.784 L 411.462 326.500 412.385 332.198 C 413.256 337.573,413.484 337.918,416.404 338.288 M145.269 328.656 C 144.592 328.930,143.242 328.947,142.269 328.693 C 141.296 328.439,141.850 328.215,143.500 328.195 C 145.150 328.175,145.946 328.382,145.269 328.656 M161.926 329.862 C 162.620 331.159,162.555 332.215,161.711 333.342 C 160.689 334.708,159.487 334.827,154.000 334.107 L 147.500 333.254 153.500 333.111 C 158.005 333.005,159.126 332.708,158.000 331.919 C 156.826 331.097,156.989 331.006,158.750 331.502 C 160.367 331.957,161.000 331.711,161.000 330.631 C 161.000 329.683,159.797 328.977,157.750 328.723 L 154.500 328.320 157.715 328.160 C 159.939 328.049,161.237 328.574,161.926 329.862 M187.729 328.604 C 187.397 328.936,186.534 328.972,185.813 328.683 C 185.015 328.364,185.252 328.127,186.417 328.079 C 187.471 328.036,188.061 328.272,187.729 328.604 M193.693 331.731 C 193.439 332.704,193.215 332.150,193.195 330.500 C 193.175 328.850,193.382 328.054,193.656 328.731 C 193.930 329.408,193.947 330.758,193.693 331.731 M269.000 328.500 C 269.000 328.775,268.775 329.000,268.500 329.000 C 268.225 329.000,268.000 328.775,268.000 328.500 C 268.000 328.225,268.225 328.000,268.500 328.000 C 268.775 328.000,269.000 328.225,269.000 328.500 M491.000 328.500 C 491.000 328.775,490.775 329.000,490.500 329.000 C 490.225 329.000,490.000 328.775,490.000 328.500 C 490.000 328.225,490.225 328.000,490.500 328.000 C 490.775 328.000,491.000 328.225,491.000 328.500 M154.000 329.500 C 154.000 329.775,153.775 330.000,153.500 330.000 C 153.225 330.000,153.000 329.775,153.000 329.500 C 153.000 329.225,153.225 329.000,153.500 329.000 C 153.775 329.000,154.000 329.225,154.000 329.500 M245.667 330.667 C 245.300 331.033,245.000 330.733,245.000 330.000 C 245.000 329.267,245.300 328.967,245.667 329.333 C 246.033 329.700,246.033 330.300,245.667 330.667 M293.917 329.367 C 293.688 329.569,291.700 330.036,289.500 330.404 C 286.634 330.884,285.925 330.785,287.000 330.052 C 288.349 329.133,294.920 328.483,293.917 329.367 M318.667 330.667 C 318.300 331.033,318.000 330.733,318.000 330.000 C 318.000 329.267,318.300 328.967,318.667 329.333 C 319.033 329.700,319.033 330.300,318.667 330.667 M364.000 329.500 C 364.000 329.775,363.775 330.000,363.500 330.000 C 363.225 330.000,363.000 329.775,363.000 329.500 C 363.000 329.225,363.225 329.000,363.500 329.000 C 363.775 329.000,364.000 329.225,364.000 329.500 M52.000 330.500 C 52.000 330.775,51.775 331.000,51.500 331.000 C 51.225 331.000,51.000 330.775,51.000 330.500 C 51.000 330.225,51.225 330.000,51.500 330.000 C 51.775 330.000,52.000 330.225,52.000 330.500 M156.000 330.500 C 156.000 330.775,155.775 331.000,155.500 331.000 C 155.225 331.000,155.000 330.775,155.000 330.500 C 155.000 330.225,155.225 330.000,155.500 330.000 C 155.775 330.000,156.000 330.225,156.000 330.500 M176.500 330.865 C 175.400 331.214,178.325 331.765,183.000 332.091 L 191.500 332.683 182.000 332.709 C 171.620 332.738,167.844 332.053,172.000 330.896 C 173.375 330.513,175.400 330.207,176.500 330.216 L 178.500 330.232 176.500 330.865 M188.264 330.704 C 187.034 330.941,184.784 330.947,183.264 330.718 C 181.744 330.488,182.750 330.294,185.500 330.286 C 188.250 330.279,189.494 330.467,188.264 330.704 M204.886 337.500 C 202.223 340.240,201.255 340.543,193.735 341.000 L 185.500 341.500 185.510 344.750 C 185.521 348.617,183.328 349.154,182.413 345.509 C 181.946 343.648,182.511 342.153,184.644 339.601 C 188.297 335.231,192.032 333.621,198.676 333.554 C 201.599 333.524,203.993 333.163,203.996 332.750 C 203.998 332.337,203.213 331.993,202.250 331.985 C 200.759 331.972,200.722 331.829,201.999 331.022 C 203.081 330.338,204.098 330.690,205.650 332.287 L 207.802 334.500 204.886 337.500 M266.667 331.667 C 266.300 332.033,266.000 331.733,266.000 331.000 C 266.000 330.267,266.300 329.967,266.667 330.333 C 267.033 330.700,267.033 331.300,266.667 331.667 M268.667 331.667 C 268.300 332.033,268.000 331.733,268.000 331.000 C 268.000 330.267,268.300 329.967,268.667 330.333 C 269.033 330.700,269.033 331.300,268.667 331.667 M304.000 330.500 C 304.000 330.775,303.775 331.000,303.500 331.000 C 303.225 331.000,303.000 330.775,303.000 330.500 C 303.000 330.225,303.225 330.000,303.500 330.000 C 303.775 330.000,304.000 330.225,304.000 330.500 M314.008 340.000 C 314.345 342.210,314.060 347.401,313.628 346.917 C 313.424 346.688,313.006 342.675,312.701 338.000 C 312.206 330.437,312.656 331.125,314.008 340.000 M16.000 331.500 C 16.000 331.775,15.775 332.000,15.500 332.000 C 15.225 332.000,15.000 331.775,15.000 331.500 C 15.000 331.225,15.225 331.000,15.500 331.000 C 15.775 331.000,16.000 331.225,16.000 331.500 M19.000 331.500 C 19.000 331.775,18.775 332.000,18.500 332.000 C 18.225 332.000,18.000 331.775,18.000 331.500 C 18.000 331.225,18.225 331.000,18.500 331.000 C 18.775 331.000,19.000 331.225,19.000 331.500 M48.571 332.571 C 47.707 333.436,47.000 334.861,47.000 335.738 C 47.000 336.615,46.721 337.054,46.380 336.713 C 45.244 335.577,47.015 331.000,48.590 331.000 C 49.986 331.000,49.984 331.159,48.571 332.571 M233.747 338.750 C 235.211 339.869,235.216 340.000,233.798 340.000 C 231.850 340.000,230.949 337.839,231.160 333.668 L 231.320 330.500 231.716 334.000 C 231.934 335.925,232.848 338.063,233.747 338.750 M241.250 331.706 C 240.012 331.944,237.988 331.944,236.750 331.706 C 235.512 331.467,236.525 331.272,239.000 331.272 C 241.475 331.272,242.488 331.467,241.250 331.706 M251.000 331.500 C 251.000 331.775,250.775 332.000,250.500 332.000 C 250.225 332.000,250.000 331.775,250.000 331.500 C 250.000 331.225,250.225 331.000,250.500 331.000 C 250.775 331.000,251.000 331.225,251.000 331.500 M428.716 338.750 C 428.487 340.262,428.300 339.025,428.300 336.000 C 428.300 332.975,428.487 331.738,428.716 333.250 C 428.945 334.762,428.945 337.238,428.716 338.750 M443.706 337.250 C 443.467 338.488,443.272 337.475,443.272 335.000 C 443.272 332.525,443.467 331.512,443.706 332.750 C 443.944 333.988,443.944 336.012,443.706 337.250 M30.250 332.662 C 29.563 332.940,28.438 332.940,27.750 332.662 C 27.063 332.385,27.625 332.158,29.000 332.158 C 30.375 332.158,30.938 332.385,30.250 332.662 M40.269 332.656 C 39.592 332.930,38.242 332.947,37.269 332.693 C 36.296 332.439,36.850 332.215,38.500 332.195 C 40.150 332.175,40.946 332.382,40.269 332.656 M58.250 332.706 C 57.013 332.944,54.987 332.944,53.750 332.706 C 52.513 332.467,53.525 332.272,56.000 332.272 C 58.475 332.272,59.487 332.467,58.250 332.706 M147.000 332.500 C 147.000 332.775,146.775 333.000,146.500 333.000 C 146.225 333.000,146.000 332.775,146.000 332.500 C 146.000 332.225,146.225 332.000,146.500 332.000 C 146.775 332.000,147.000 332.225,147.000 332.500 M297.000 332.500 C 297.000 332.775,296.775 333.000,296.500 333.000 C 296.225 333.000,296.000 332.775,296.000 332.500 C 296.000 332.225,296.225 332.000,296.500 332.000 C 296.775 332.000,297.000 332.225,297.000 332.500 M306.000 332.500 C 306.000 332.775,305.775 333.000,305.500 333.000 C 305.225 333.000,305.000 332.775,305.000 332.500 C 305.000 332.225,305.225 332.000,305.500 332.000 C 305.775 332.000,306.000 332.225,306.000 332.500 M354.000 333.000 C 355.974 334.276,361.000 334.276,361.000 333.000 C 361.000 332.450,359.087 332.007,356.750 332.015 C 353.638 332.027,352.901 332.290,354.000 333.000 M365.000 332.500 C 365.000 332.775,364.775 333.000,364.500 333.000 C 364.225 333.000,364.000 332.775,364.000 332.500 C 364.000 332.225,364.225 332.000,364.500 332.000 C 364.775 332.000,365.000 332.225,365.000 332.500 M13.667 333.667 C 13.300 334.033,12.700 334.033,12.333 333.667 C 11.967 333.300,12.267 333.000,13.000 333.000 C 13.733 333.000,14.033 333.300,13.667 333.667 M22.667 333.667 C 22.300 334.033,21.700 334.033,21.333 333.667 C 20.967 333.300,21.267 333.000,22.000 333.000 C 22.733 333.000,23.033 333.300,22.667 333.667 M67.804 335.988 C 67.672 337.728,67.206 338.606,66.689 338.089 C 66.201 337.601,66.101 336.256,66.468 335.101 C 67.425 332.085,68.069 332.513,67.804 335.988 M171.500 334.000 C 171.840 334.550,171.893 335.000,171.618 335.000 C 171.343 335.000,170.840 334.550,170.500 334.000 C 170.160 333.450,170.107 333.000,170.382 333.000 C 170.657 333.000,171.160 333.450,171.500 334.000 M245.000 333.500 C 245.000 333.775,244.775 334.000,244.500 334.000 C 244.225 334.000,244.000 333.775,244.000 333.500 C 244.000 333.225,244.225 333.000,244.500 333.000 C 244.775 333.000,245.000 333.225,245.000 333.500 M254.000 333.500 C 254.000 333.775,253.775 334.000,253.500 334.000 C 253.225 334.000,253.000 333.775,253.000 333.500 C 253.000 333.225,253.225 333.000,253.500 333.000 C 253.775 333.000,254.000 333.225,254.000 333.500 M366.500 336.500 C 366.500 339.148,366.080 340.000,364.775 340.000 C 363.348 340.000,363.214 339.568,364.000 337.500 C 364.523 336.125,364.624 334.993,364.225 334.985 C 363.826 334.976,364.175 334.533,365.000 334.000 C 365.825 333.467,366.500 333.024,366.500 333.015 C 366.500 333.007,366.500 334.575,366.500 336.500 M396.333 333.667 C 396.700 334.033,397.300 334.033,397.667 333.667 C 398.033 333.300,397.733 333.000,397.000 333.000 C 396.267 333.000,395.967 333.300,396.333 333.667 M456.000 333.500 C 456.000 333.775,455.775 334.000,455.500 334.000 C 455.225 334.000,455.000 333.775,455.000 333.500 C 455.000 333.225,455.225 333.000,455.500 333.000 C 455.775 333.000,456.000 333.225,456.000 333.500 M490.000 333.500 C 490.000 333.775,489.775 334.000,489.500 334.000 C 489.225 334.000,489.000 333.775,489.000 333.500 C 489.000 333.225,489.225 333.000,489.500 333.000 C 489.775 333.000,490.000 333.225,490.000 333.500 M493.667 334.667 C 493.300 335.033,493.000 334.733,493.000 334.000 C 493.000 333.267,493.300 332.967,493.667 333.333 C 494.033 333.700,494.033 334.300,493.667 334.667 M537.426 336.333 C 536.425 338.941,535.223 338.286,535.769 335.430 C 536.061 333.901,536.626 333.226,537.163 333.763 C 537.659 334.259,537.778 335.416,537.426 336.333 M144.000 334.500 C 144.000 334.775,143.775 335.000,143.500 335.000 C 143.225 335.000,143.000 334.775,143.000 334.500 C 143.000 334.225,143.225 334.000,143.500 334.000 C 143.775 334.000,144.000 334.225,144.000 334.500 M176.729 334.604 C 176.397 334.936,175.534 334.972,174.813 334.683 C 174.015 334.364,174.252 334.127,175.417 334.079 C 176.471 334.036,177.061 334.272,176.729 334.604 M182.485 338.024 C 182.211 338.467,182.553 339.057,183.244 339.336 C 184.002 339.641,183.806 339.873,182.750 339.921 C 181.432 339.981,181.000 340.863,181.000 343.500 C 181.000 345.433,180.495 347.000,179.871 347.000 C 179.092 347.000,178.952 345.422,179.418 341.909 C 179.890 338.348,179.703 336.341,178.797 335.234 C 177.770 333.980,178.070 334.022,180.241 335.435 C 181.749 336.416,182.759 337.581,182.485 338.024 M196.000 335.082 C 191.666 335.677,191.730 335.705,197.750 335.850 C 203.905 335.998,205.682 335.603,202.250 334.849 C 201.287 334.638,198.475 334.743,196.000 335.082 M211.655 335.543 C 212.585 337.967,211.287 338.405,210.046 336.086 C 209.272 334.639,209.257 334.000,209.996 334.000 C 210.583 334.000,211.329 334.694,211.655 335.543 M225.500 335.000 C 225.160 335.550,224.121 335.968,223.191 335.930 C 221.812 335.872,221.870 335.701,223.500 335.000 C 226.176 333.850,226.211 333.850,225.500 335.000 M242.500 335.000 C 242.840 335.550,242.893 336.000,242.618 336.000 C 242.343 336.000,241.840 335.550,241.500 335.000 C 241.160 334.450,241.107 334.000,241.382 334.000 C 241.657 334.000,242.160 334.450,242.500 335.000 M267.667 334.667 C 267.300 335.033,266.700 335.033,266.333 334.667 C 265.967 334.300,266.267 334.000,267.000 334.000 C 267.733 334.000,268.033 334.300,267.667 334.667 M336.000 334.500 C 336.000 334.775,335.775 335.000,335.500 335.000 C 335.225 335.000,335.000 334.775,335.000 334.500 C 335.000 334.225,335.225 334.000,335.500 334.000 C 335.775 334.000,336.000 334.225,336.000 334.500 M154.250 335.706 C 152.447 336.053,152.000 336.809,152.000 339.511 C 152.000 341.365,151.662 343.091,151.250 343.346 C 150.838 343.600,150.658 341.827,150.851 339.405 C 151.173 335.353,151.414 335.011,153.851 335.136 C 156.207 335.257,156.251 335.320,154.250 335.706 M245.000 335.500 C 245.000 335.775,244.775 336.000,244.500 336.000 C 244.225 336.000,244.000 335.775,244.000 335.500 C 244.000 335.225,244.225 335.000,244.500 335.000 C 244.775 335.000,245.000 335.225,245.000 335.500 M254.000 335.500 C 254.000 335.775,253.775 336.000,253.500 336.000 C 253.225 336.000,253.000 335.775,253.000 335.500 C 253.000 335.225,253.225 335.000,253.500 335.000 C 253.775 335.000,254.000 335.225,254.000 335.500 M456.000 335.500 C 456.000 335.775,455.775 336.000,455.500 336.000 C 455.225 336.000,455.000 335.775,455.000 335.500 C 455.000 335.225,455.225 335.000,455.500 335.000 C 455.775 335.000,456.000 335.225,456.000 335.500 M488.667 335.667 C 488.300 336.033,487.700 336.033,487.333 335.667 C 486.967 335.300,487.267 335.000,488.000 335.000 C 488.733 335.000,489.033 335.300,488.667 335.667 M139.366 340.235 C 139.990 340.639,142.300 341.005,144.500 341.048 C 148.196 341.121,148.310 341.203,146.000 342.128 C 144.625 342.679,142.503 342.941,141.285 342.710 C 140.067 342.479,138.916 342.753,138.727 343.318 C 138.532 343.903,134.165 344.460,128.587 344.611 C 123.199 344.757,118.500 345.169,118.145 345.527 C 117.790 345.884,119.525 346.079,122.000 345.959 C 124.475 345.839,127.175 346.013,128.000 346.345 C 128.825 346.677,132.200 347.114,135.500 347.315 C 138.800 347.517,133.289 347.697,123.254 347.715 C 109.305 347.741,104.618 348.072,103.355 349.121 C 102.073 350.184,98.203 350.424,86.125 350.189 C 69.161 349.859,67.112 349.164,71.557 345.250 C 74.408 342.739,81.713 342.113,83.800 344.200 C 84.460 344.860,85.007 344.973,85.015 344.450 C 85.024 343.928,85.442 344.150,85.945 344.945 C 86.729 346.185,87.345 346.129,90.270 344.554 C 94.552 342.248,100.948 343.086,101.725 346.055 C 102.451 348.833,104.000 347.394,104.000 343.941 C 104.000 341.278,105.826 339.610,106.125 342.000 C 106.194 342.550,106.306 343.466,106.375 344.036 C 106.581 345.747,109.290 346.968,112.917 346.985 C 114.796 346.993,116.052 346.719,115.709 346.376 C 115.366 346.033,116.059 344.963,117.249 343.999 C 119.063 342.530,120.778 342.332,127.859 342.774 C 134.082 343.162,136.117 342.998,135.593 342.150 C 135.202 341.518,135.359 341.000,135.941 341.000 C 136.523 341.000,137.052 339.762,137.116 338.250 C 137.205 336.142,137.349 335.967,137.732 337.500 C 138.007 338.600,138.742 339.831,139.366 340.235 M158.642 340.629 C 158.071 345.291,157.000 347.855,157.000 344.560 C 157.000 343.394,156.486 342.983,155.500 343.362 C 153.311 344.202,153.666 342.690,156.000 341.232 C 157.100 340.545,158.000 339.087,158.000 337.992 C 158.000 336.896,158.272 336.000,158.604 336.000 C 158.937 336.000,158.954 338.083,158.642 340.629 M174.500 336.724 C 173.400 336.994,171.938 337.672,171.250 338.230 C 170.496 338.842,170.000 338.865,170.000 338.289 C 170.000 336.672,171.220 335.995,173.917 336.116 C 175.996 336.209,176.109 336.328,174.500 336.724 M189.333 336.667 C 189.700 337.033,190.300 337.033,190.667 336.667 C 191.033 336.300,190.733 336.000,190.000 336.000 C 189.267 336.000,188.967 336.300,189.333 336.667 M286.729 336.604 C 286.397 336.936,285.534 336.972,284.813 336.683 C 284.015 336.364,284.252 336.127,285.417 336.079 C 286.471 336.036,287.061 336.272,286.729 336.604 M305.813 340.751 C 305.548 342.963,305.999 343.495,308.750 344.211 C 310.538 344.676,312.000 345.277,312.000 345.547 C 312.000 346.446,298.535 345.207,296.000 344.074 L 293.500 342.957 296.000 343.350 C 297.375 343.566,299.277 344.070,300.227 344.469 C 302.743 345.528,304.896 340.664,303.149 337.866 C 302.007 336.038,302.076 335.970,304.017 337.009 C 305.500 337.803,306.033 338.912,305.813 340.751 M372.718 342.736 C 372.488 344.256,372.294 343.250,372.286 340.500 C 372.279 337.750,372.467 336.506,372.704 337.736 C 372.941 338.966,372.947 341.216,372.718 342.736 M524.564 337.293 C 524.940 338.279,525.499 338.834,525.807 338.526 C 526.115 338.219,525.808 337.412,525.124 336.733 C 524.136 335.753,524.022 335.868,524.564 337.293 M574.000 337.000 C 575.333 337.862,575.333 337.963,574.000 337.914 C 573.175 337.884,571.600 337.473,570.500 337.000 L 568.500 336.141 570.500 336.086 C 571.600 336.055,573.175 336.467,574.000 337.000 M585.369 337.212 C 585.101 337.645,583.221 337.968,581.191 337.930 C 578.241 337.874,577.902 337.690,579.500 337.017 C 581.941 335.989,586.041 336.125,585.369 337.212 M644.749 336.584 C 643.942 337.391,617.119 337.453,616.316 336.649 C 615.959 336.292,622.342 336.000,630.500 336.000 C 638.658 336.000,645.070 336.263,644.749 336.584 M689.000 336.500 C 689.000 336.775,688.775 337.000,688.500 337.000 C 688.225 337.000,688.000 336.775,688.000 336.500 C 688.000 336.225,688.225 336.000,688.500 336.000 C 688.775 336.000,689.000 336.225,689.000 336.500 M740.000 338.500 C 742.178 339.875,744.532 341.036,745.230 341.080 C 745.929 341.125,744.475 341.708,742.000 342.376 C 737.126 343.692,735.445 343.450,738.314 341.844 C 739.734 341.050,739.864 340.541,738.933 339.419 C 738.285 338.639,737.023 337.993,736.128 337.985 C 735.232 337.976,733.825 337.533,733.000 337.000 C 731.789 336.217,731.938 336.028,733.770 336.015 C 735.018 336.007,737.822 337.125,740.000 338.500 M793.500 337.057 C 791.300 337.512,786.350 337.942,782.500 338.013 C 778.650 338.083,774.731 338.446,773.791 338.820 C 772.852 339.194,769.702 339.292,766.791 339.037 C 762.462 338.658,763.863 338.367,774.500 337.434 C 781.650 336.807,789.750 336.279,792.500 336.262 L 797.500 336.230 793.500 337.057 M178.667 338.667 C 178.300 339.033,178.000 338.733,178.000 338.000 C 178.000 337.267,178.300 336.967,178.667 337.333 C 179.033 337.700,179.033 338.300,178.667 338.667 M241.750 337.716 C 240.238 337.945,237.762 337.945,236.250 337.716 C 234.738 337.487,235.975 337.300,239.000 337.300 C 242.025 337.300,243.262 337.487,241.750 337.716 M251.500 337.732 C 250.400 338.007,249.169 338.742,248.765 339.366 C 248.268 340.133,248.026 340.150,248.015 339.417 C 247.992 337.755,249.125 336.988,251.417 337.116 C 253.432 337.228,253.435 337.248,251.500 337.732 M269.250 337.723 C 266.841 338.022,266.000 338.628,266.000 340.063 C 266.000 341.129,266.450 342.000,267.000 342.000 C 268.485 342.000,267.732 344.395,266.000 345.180 C 265.175 345.554,262.925 345.850,261.000 345.840 L 257.500 345.820 260.737 344.885 C 263.070 344.211,264.156 343.188,264.626 341.225 C 265.588 337.196,265.830 336.986,269.309 337.160 L 272.500 337.320 269.250 337.723 M274.000 337.500 C 274.000 337.775,273.775 338.000,273.500 338.000 C 273.225 338.000,273.000 337.775,273.000 337.500 C 273.000 337.225,273.225 337.000,273.500 337.000 C 273.775 337.000,274.000 337.225,274.000 337.500 M279.074 341.813 C 279.389 344.171,279.277 346.329,278.824 346.609 C 278.371 346.889,277.968 346.304,277.930 345.309 C 277.867 343.701,277.769 343.722,277.043 345.500 C 276.359 347.178,276.161 346.936,275.817 344.000 L 275.407 340.500 274.174 343.500 C 273.496 345.150,272.743 347.063,272.502 347.750 C 271.947 349.331,265.363 349.396,264.395 347.830 C 263.903 347.034,264.226 346.873,265.408 347.326 C 267.933 348.295,271.000 346.287,271.000 343.665 C 271.000 340.716,272.775 339.017,275.950 338.930 C 278.297 338.865,278.341 338.786,276.500 337.938 L 274.500 337.017 276.500 337.272 C 278.041 337.468,278.632 338.510,279.074 341.813 M295.662 340.250 C 295.385 340.938,295.158 340.375,295.158 339.000 C 295.158 337.625,295.385 337.063,295.662 337.750 C 295.940 338.438,295.940 339.563,295.662 340.250 M311.000 338.607 C 311.000 338.823,310.325 339.000,309.500 339.000 C 308.675 339.000,308.000 338.564,308.000 338.031 C 308.000 337.499,308.675 337.322,309.500 337.638 C 310.325 337.955,311.000 338.391,311.000 338.607 M334.707 342.238 C 334.468 343.482,334.263 342.700,334.252 340.500 C 334.241 338.300,334.437 337.282,334.687 338.238 C 334.937 339.194,334.946 340.994,334.707 342.238 M339.079 339.781 C 339.125 341.379,339.393 341.882,339.729 341.000 C 340.043 340.175,340.720 339.225,341.234 338.889 C 341.747 338.553,341.455 338.005,340.584 337.671 C 339.369 337.204,339.018 337.696,339.079 339.781 M519.820 339.250 C 519.258 343.204,520.177 348.000,521.496 348.000 C 522.880 348.000,524.547 339.693,523.502 338.003 C 522.384 336.195,520.146 336.953,519.820 339.250 M554.812 339.000 C 558.349 339.000,560.132 339.498,561.079 340.750 C 562.206 342.239,562.194 342.313,561.002 341.250 C 560.230 340.561,557.050 340.000,553.922 340.000 C 549.844 340.000,547.858 339.531,546.872 338.336 C 545.632 336.832,545.710 336.784,547.684 337.836 C 548.886 338.476,552.093 339.000,554.812 339.000 M600.269 337.656 C 599.592 337.930,598.242 337.947,597.269 337.693 C 596.296 337.439,596.850 337.215,598.500 337.195 C 600.150 337.175,600.946 337.382,600.269 337.656 M679.000 339.000 C 679.589 340.100,679.899 341.000,679.690 341.000 C 679.481 341.000,678.495 340.100,677.500 339.000 C 676.505 337.900,676.194 337.000,676.810 337.000 C 677.426 337.000,678.411 337.900,679.000 339.000 M694.269 337.656 C 693.592 337.930,692.242 337.947,691.269 337.693 C 690.296 337.439,690.850 337.215,692.500 337.195 C 694.150 337.175,694.946 337.382,694.269 337.656 M721.000 338.000 C 722.828 339.181,721.249 339.181,718.500 338.000 C 717.181 337.433,717.011 337.122,718.000 337.086 C 718.825 337.055,720.175 337.467,721.000 338.000 M123.667 339.667 C 123.300 340.033,123.000 339.733,123.000 339.000 C 123.000 338.267,123.300 337.967,123.667 338.333 C 124.033 338.700,124.033 339.300,123.667 339.667 M169.000 338.500 C 169.000 338.775,168.775 339.000,168.500 339.000 C 168.225 339.000,168.000 338.775,168.000 338.500 C 168.000 338.225,168.225 338.000,168.500 338.000 C 168.775 338.000,169.000 338.225,169.000 338.500 M294.000 338.500 C 294.000 338.775,293.775 339.000,293.500 339.000 C 293.225 339.000,293.000 338.775,293.000 338.500 C 293.000 338.225,293.225 338.000,293.500 338.000 C 293.775 338.000,294.000 338.225,294.000 338.500 M476.729 338.604 C 476.397 338.936,475.534 338.972,474.813 338.683 C 474.015 338.364,474.252 338.127,475.417 338.079 C 476.471 338.036,477.061 338.272,476.729 338.604 M515.385 343.384 C 515.685 347.394,515.553 347.807,514.469 346.259 C 512.815 343.898,512.341 340.833,513.375 339.183 C 514.577 337.266,514.991 338.133,515.385 343.384 M544.847 340.500 C 545.494 344.014,547.086 345.005,551.872 344.868 L 556.500 344.737 553.000 343.916 C 550.418 343.311,551.184 343.215,555.919 343.550 C 559.449 343.800,562.562 344.229,562.836 344.502 C 564.041 345.708,561.583 346.232,554.507 346.277 C 550.329 346.304,547.442 346.655,548.093 347.058 C 548.744 347.460,554.614 347.676,561.138 347.538 C 569.961 347.352,573.704 347.658,575.750 348.736 C 577.560 349.690,581.404 350.165,587.000 350.126 C 598.750 350.043,599.935 351.434,588.416 351.788 C 581.428 352.003,578.280 351.679,576.027 350.514 C 574.365 349.654,571.316 348.933,569.253 348.911 C 567.189 348.890,561.000 348.788,555.500 348.686 L 545.500 348.500 544.430 344.060 C 543.841 341.618,542.886 339.462,542.306 339.269 C 541.274 338.925,541.336 339.502,543.502 350.395 C 544.041 353.102,543.948 354.086,543.196 353.621 C 542.602 353.254,541.847 350.826,541.519 348.227 C 541.191 345.627,540.720 342.232,540.472 340.682 C 540.082 338.234,540.316 337.906,542.251 338.182 C 543.540 338.366,544.635 339.343,544.847 340.500 M590.269 338.656 C 589.592 338.930,588.242 338.947,587.269 338.693 C 586.296 338.439,586.850 338.215,588.500 338.195 C 590.150 338.175,590.946 338.382,590.269 338.656 M651.250 338.706 C 650.013 338.944,647.987 338.944,646.750 338.706 C 645.513 338.467,646.525 338.272,649.000 338.272 C 651.475 338.272,652.487 338.467,651.250 338.706 M668.345 339.250 C 668.091 339.663,669.735 340.000,672.000 340.000 C 674.491 340.000,675.874 340.395,675.500 341.000 C 674.775 342.174,669.370 342.208,666.500 341.058 C 665.259 340.560,663.457 340.786,661.750 341.653 C 658.510 343.300,658.143 342.515,661.050 340.160 C 663.053 338.538,669.264 337.763,668.345 339.250 M712.000 338.500 C 712.000 338.775,711.775 339.000,711.500 339.000 C 711.225 339.000,711.000 338.775,711.000 338.500 C 711.000 338.225,711.225 338.000,711.500 338.000 C 711.775 338.000,712.000 338.225,712.000 338.500 M724.000 338.500 C 724.000 338.775,723.775 339.000,723.500 339.000 C 723.225 339.000,723.000 338.775,723.000 338.500 C 723.000 338.225,723.225 338.000,723.500 338.000 C 723.775 338.000,724.000 338.225,724.000 338.500 M98.000 339.500 C 98.000 339.775,98.225 340.000,98.500 340.000 C 98.775 340.000,99.000 339.775,99.000 339.500 C 99.000 339.225,98.775 339.000,98.500 339.000 C 98.225 339.000,98.000 339.225,98.000 339.500 M112.813 342.250 C 112.574 344.729,112.025 345.500,110.500 345.500 C 109.187 345.500,108.390 344.727,108.180 343.250 C 108.005 342.012,108.373 341.000,108.998 341.000 C 109.680 341.000,109.881 341.801,109.500 343.000 C 109.036 344.462,109.320 345.000,110.558 345.000 C 111.905 345.000,112.128 344.388,111.650 342.000 C 111.292 340.208,111.468 339.000,112.088 339.000 C 112.659 339.000,112.986 340.462,112.813 342.250 M240.667 340.667 C 240.300 341.033,240.000 340.733,240.000 340.000 C 240.000 339.267,240.300 338.967,240.667 339.333 C 241.033 339.700,241.033 340.300,240.667 340.667 M268.000 339.500 C 268.000 339.775,267.775 340.000,267.500 340.000 C 267.225 340.000,267.000 339.775,267.000 339.500 C 267.000 339.225,267.225 339.000,267.500 339.000 C 267.775 339.000,268.000 339.225,268.000 339.500 M345.000 340.000 C 345.000 340.733,345.300 341.033,345.667 340.667 C 346.033 340.300,346.033 339.700,345.667 339.333 C 345.300 338.967,345.000 339.267,345.000 340.000 M386.079 340.583 C 386.127 341.748,386.364 341.985,386.683 341.188 C 386.972 340.466,386.936 339.603,386.604 339.271 C 386.272 338.939,386.036 339.529,386.079 340.583 M531.015 341.083 C 531.024 342.413,531.473 344.175,532.014 345.000 C 532.706 346.055,532.807 345.462,532.355 343.000 C 531.564 338.687,530.995 337.874,531.015 341.083 M571.250 339.706 C 570.013 339.944,567.987 339.944,566.750 339.706 C 565.513 339.467,566.525 339.272,569.000 339.272 C 571.475 339.272,572.487 339.467,571.250 339.706 M617.000 339.500 C 617.000 339.775,616.775 340.000,616.500 340.000 C 616.225 340.000,616.000 339.775,616.000 339.500 C 616.000 339.225,616.225 339.000,616.500 339.000 C 616.775 339.000,617.000 339.225,617.000 339.500 M633.000 339.500 C 633.000 339.775,632.775 340.000,632.500 340.000 C 632.225 340.000,632.000 339.775,632.000 339.500 C 632.000 339.225,632.225 339.000,632.500 339.000 C 632.775 339.000,633.000 339.225,633.000 339.500 M798.000 340.607 C 798.000 340.823,797.325 341.000,796.500 341.000 C 795.675 341.000,795.000 340.564,795.000 340.031 C 795.000 339.499,795.675 339.322,796.500 339.638 C 797.325 339.955,798.000 340.391,798.000 340.607 M116.000 340.500 C 116.000 340.775,115.775 341.000,115.500 341.000 C 115.225 341.000,115.000 340.775,115.000 340.500 C 115.000 340.225,115.225 340.000,115.500 340.000 C 115.775 340.000,116.000 340.225,116.000 340.500 M177.500 341.000 C 177.840 341.550,177.641 342.000,177.059 342.000 C 176.477 342.000,176.000 341.550,176.000 341.000 C 176.000 340.450,176.198 340.000,176.441 340.000 C 176.684 340.000,177.160 340.450,177.500 341.000 M243.616 344.558 C 243.312 345.351,242.486 345.964,241.781 345.921 C 240.778 345.859,240.771 345.733,241.750 345.338 C 242.438 345.060,243.052 343.633,243.116 342.167 C 243.194 340.369,243.385 340.089,243.701 341.308 C 243.958 342.303,243.920 343.766,243.616 344.558 M309.815 341.349 C 311.255 340.890,311.282 340.968,310.000 341.890 C 307.692 343.550,305.970 343.241,306.715 341.301 C 307.088 340.327,307.530 340.090,307.748 340.744 C 307.958 341.373,308.888 341.645,309.815 341.349 M525.000 340.500 C 525.000 340.775,525.225 341.000,525.500 341.000 C 525.775 341.000,526.000 340.775,526.000 340.500 C 526.000 340.225,525.775 340.000,525.500 340.000 C 525.225 340.000,525.000 340.225,525.000 340.500 M533.500 341.000 C 533.160 341.550,533.359 342.000,533.941 342.000 C 534.523 342.000,535.000 341.550,535.000 341.000 C 535.000 340.450,534.802 340.000,534.559 340.000 C 534.316 340.000,533.840 340.450,533.500 341.000 M647.250 340.723 C 645.462 340.945,642.538 340.945,640.750 340.723 C 638.962 340.502,640.425 340.320,644.000 340.320 C 647.575 340.320,649.038 340.502,647.250 340.723 M717.000 340.500 C 717.000 340.775,716.775 341.000,716.500 341.000 C 716.225 341.000,716.000 340.775,716.000 340.500 C 716.000 340.225,716.225 340.000,716.500 340.000 C 716.775 340.000,717.000 340.225,717.000 340.500 M727.636 341.494 L 730.500 342.988 725.832 342.994 C 723.264 342.997,720.339 342.675,719.332 342.277 C 717.578 341.586,718.516 341.164,724.136 340.118 C 724.485 340.053,726.060 340.672,727.636 341.494 M764.667 340.667 C 764.300 341.033,763.700 341.033,763.333 340.667 C 762.967 340.300,763.267 340.000,764.000 340.000 C 764.733 340.000,765.033 340.300,764.667 340.667 M768.000 340.500 C 768.000 340.775,767.775 341.000,767.500 341.000 C 767.225 341.000,767.000 340.775,767.000 340.500 C 767.000 340.225,767.225 340.000,767.500 340.000 C 767.775 340.000,768.000 340.225,768.000 340.500 M89.667 342.667 C 89.300 343.033,89.000 342.733,89.000 342.000 C 89.000 341.267,89.300 340.967,89.667 341.333 C 90.033 341.700,90.033 342.300,89.667 342.667 M251.000 341.500 C 251.000 341.775,250.775 342.000,250.500 342.000 C 250.225 342.000,250.000 341.775,250.000 341.500 C 250.000 341.225,250.225 341.000,250.500 341.000 C 250.775 341.000,251.000 341.225,251.000 341.500 M287.035 342.934 C 285.524 345.757,285.764 346.423,287.750 344.921 C 289.234 343.798,289.312 343.808,288.260 344.988 C 287.078 346.315,284.000 347.318,284.000 346.376 C 284.000 345.682,287.178 341.000,287.650 341.000 C 287.881 341.000,287.605 341.870,287.035 342.934 M323.000 341.500 C 323.000 341.775,323.225 342.000,323.500 342.000 C 323.775 342.000,324.000 341.775,324.000 341.500 C 324.000 341.225,323.775 341.000,323.500 341.000 C 323.225 341.000,323.000 341.225,323.000 341.500 M367.000 341.418 C 367.000 341.648,367.273 342.548,367.607 343.418 C 368.130 344.781,367.128 344.990,360.357 344.930 C 352.775 344.862,352.176 343.458,359.500 342.920 C 361.934 342.741,361.651 342.568,358.000 342.000 C 353.723 341.335,353.834 341.293,360.250 341.150 C 363.962 341.068,367.000 341.188,367.000 341.418 M369.667 342.456 C 369.667 343.257,369.284 343.676,368.817 343.387 C 368.350 343.098,368.226 342.443,368.543 341.931 C 369.351 340.623,369.667 340.770,369.667 342.456 M422.000 342.000 C 422.000 342.733,422.300 343.033,422.667 342.667 C 423.033 342.300,423.033 341.700,422.667 341.333 C 422.300 340.967,422.000 341.267,422.000 342.000 M564.683 343.188 C 564.364 343.985,564.127 343.748,564.079 342.583 C 564.036 341.529,564.272 340.939,564.604 341.271 C 564.936 341.603,564.972 342.466,564.683 343.188 M699.000 341.500 C 699.000 341.775,698.775 342.000,698.500 342.000 C 698.225 342.000,698.000 341.775,698.000 341.500 C 698.000 341.225,698.225 341.000,698.500 341.000 C 698.775 341.000,699.000 341.225,699.000 341.500 M706.729 341.604 C 706.397 341.936,705.534 341.972,704.813 341.683 C 704.015 341.364,704.252 341.127,705.417 341.079 C 706.471 341.036,707.061 341.272,706.729 341.604 M712.014 344.250 C 712.021 346.038,712.328 348.625,712.694 350.000 C 713.330 352.381,713.279 352.417,711.609 350.750 C 710.284 349.426,707.988 348.957,702.179 348.823 L 694.500 348.647 701.500 348.073 C 708.357 347.512,708.520 347.434,709.457 344.250 C 709.983 342.462,710.771 341.000,711.207 341.000 C 711.643 341.000,712.006 342.462,712.014 344.250 M783.000 341.441 C 783.000 341.684,782.480 342.203,781.845 342.595 C 781.130 343.038,780.962 342.870,781.405 342.155 C 782.117 341.002,783.000 340.607,783.000 341.441 M794.000 341.345 C 794.000 341.535,792.987 342.547,791.750 343.595 L 789.500 345.500 791.405 343.250 C 793.195 341.136,794.000 340.545,794.000 341.345 M157.000 342.500 C 157.000 342.775,157.225 343.000,157.500 343.000 C 157.775 343.000,158.000 342.775,158.000 342.500 C 158.000 342.225,157.775 342.000,157.500 342.000 C 157.225 342.000,157.000 342.225,157.000 342.500 M167.000 342.500 C 167.000 342.775,166.775 343.000,166.500 343.000 C 166.225 343.000,166.000 342.775,166.000 342.500 C 166.000 342.225,166.225 342.000,166.500 342.000 C 166.775 342.000,167.000 342.225,167.000 342.500 M548.500 343.000 C 548.840 343.550,548.641 344.000,548.059 344.000 C 547.477 344.000,547.000 343.550,547.000 343.000 C 547.000 342.450,547.198 342.000,547.441 342.000 C 547.684 342.000,548.160 342.450,548.500 343.000 M585.729 342.604 C 585.397 342.936,584.534 342.972,583.813 342.683 C 583.015 342.364,583.252 342.127,584.417 342.079 C 585.471 342.036,586.061 342.272,585.729 342.604 M588.000 342.500 C 588.000 342.775,587.775 343.000,587.500 343.000 C 587.225 343.000,587.000 342.775,587.000 342.500 C 587.000 342.225,587.225 342.000,587.500 342.000 C 587.775 342.000,588.000 342.225,588.000 342.500 M609.250 342.723 C 607.462 342.945,604.538 342.945,602.750 342.723 C 600.962 342.502,602.425 342.320,606.000 342.320 C 609.575 342.320,611.038 342.502,609.250 342.723 M633.000 342.500 C 633.000 342.775,632.775 343.000,632.500 343.000 C 632.225 343.000,632.000 342.775,632.000 342.500 C 632.000 342.225,632.225 342.000,632.500 342.000 C 632.775 342.000,633.000 342.225,633.000 342.500 M692.990 343.699 C 693.260 343.946,690.785 344.047,687.490 343.925 C 684.196 343.802,680.600 344.031,679.500 344.432 C 677.501 345.163,677.501 345.162,679.497 343.541 C 681.063 342.269,682.684 342.062,686.997 342.584 C 690.024 342.951,692.721 343.452,692.990 343.699 M695.000 342.500 C 695.000 342.775,694.775 343.000,694.500 343.000 C 694.225 343.000,694.000 342.775,694.000 342.500 C 694.000 342.225,694.225 342.000,694.500 342.000 C 694.775 342.000,695.000 342.225,695.000 342.500 M763.575 345.444 C 763.532 347.413,763.124 348.515,762.623 348.018 C 761.866 347.265,762.497 342.000,763.344 342.000 C 763.512 342.000,763.616 343.550,763.575 345.444 M766.000 342.500 C 766.000 342.775,765.775 343.000,765.500 343.000 C 765.225 343.000,765.000 342.775,765.000 342.500 C 765.000 342.225,765.225 342.000,765.500 342.000 C 765.775 342.000,766.000 342.225,766.000 342.500 M775.000 342.500 C 775.000 342.775,774.775 343.000,774.500 343.000 C 774.225 343.000,774.000 342.775,774.000 342.500 C 774.000 342.225,774.225 342.000,774.500 342.000 C 774.775 342.000,775.000 342.225,775.000 342.500 M18.750 344.162 C 17.238 344.715,16.000 345.530,16.000 345.975 C 16.000 346.419,14.917 347.055,13.593 347.387 C 12.269 347.720,10.356 348.299,9.343 348.676 C 8.299 349.063,8.800 348.263,10.500 346.829 C 14.037 343.845,15.627 343.158,19.000 343.158 L 21.500 343.158 18.750 344.162 M174.250 343.706 C 173.012 343.944,170.988 343.944,169.750 343.706 C 168.512 343.467,169.525 343.272,172.000 343.272 C 174.475 343.272,175.488 343.467,174.250 343.706 M178.000 343.500 C 178.000 343.775,177.775 344.000,177.500 344.000 C 177.225 344.000,177.000 343.775,177.000 343.500 C 177.000 343.225,177.225 343.000,177.500 343.000 C 177.775 343.000,178.000 343.225,178.000 343.500 M255.000 343.500 C 255.000 343.775,254.775 344.000,254.500 344.000 C 254.225 344.000,254.000 343.775,254.000 343.500 C 254.000 343.225,254.225 343.000,254.500 343.000 C 254.775 343.000,255.000 343.225,255.000 343.500 M534.000 343.500 C 534.000 343.775,534.225 344.000,534.500 344.000 C 534.775 344.000,535.000 343.775,535.000 343.500 C 535.000 343.225,534.775 343.000,534.500 343.000 C 534.225 343.000,534.000 343.225,534.000 343.500 M577.234 344.381 C 578.188 345.105,578.675 345.992,578.316 346.351 C 577.956 346.710,576.950 346.360,576.079 345.572 C 575.209 344.784,572.472 343.962,569.998 343.744 L 565.500 343.349 570.500 343.207 C 573.309 343.126,576.260 343.641,577.234 344.381 M700.500 344.000 C 700.840 344.550,700.893 345.000,700.618 345.000 C 700.343 345.000,699.840 344.550,699.500 344.000 C 699.160 343.450,699.107 343.000,699.382 343.000 C 699.657 343.000,700.160 343.450,700.500 344.000 M715.000 343.500 C 715.000 343.775,714.775 344.000,714.500 344.000 C 714.225 344.000,714.000 343.775,714.000 343.500 C 714.000 343.225,714.225 343.000,714.500 343.000 C 714.775 343.000,715.000 343.225,715.000 343.500 M752.750 344.552 C 753.438 344.764,754.000 345.696,754.000 346.624 C 754.000 348.194,753.874 348.196,752.171 346.655 C 751.165 345.745,749.253 344.993,747.921 344.985 C 746.590 344.976,744.825 344.520,744.000 343.970 C 742.945 343.268,743.836 343.149,747.000 343.569 C 749.475 343.898,752.063 344.340,752.750 344.552 M769.286 345.984 C 769.576 347.093,769.405 348.000,768.906 348.000 C 768.408 348.000,768.000 347.587,768.000 347.082 C 768.000 346.577,767.699 345.378,767.330 344.418 C 766.909 343.320,767.050 342.913,767.709 343.320 C 768.286 343.677,768.996 344.876,769.286 345.984 M2.000 344.500 C 2.000 344.775,1.775 345.000,1.500 345.000 C 1.225 345.000,1.000 344.775,1.000 344.500 C 1.000 344.225,1.225 344.000,1.500 344.000 C 1.775 344.000,2.000 344.225,2.000 344.500 M149.000 344.500 C 149.000 344.775,148.775 345.000,148.500 345.000 C 148.225 345.000,148.000 344.775,148.000 344.500 C 148.000 344.225,148.225 344.000,148.500 344.000 C 148.775 344.000,149.000 344.225,149.000 344.500 M166.000 344.387 C 166.000 344.599,164.674 344.968,163.053 345.206 C 161.432 345.443,160.333 345.270,160.612 344.819 C 161.107 344.017,166.000 343.625,166.000 344.387 M601.250 344.740 C 597.813 344.936,592.188 344.936,588.750 344.740 C 585.313 344.545,588.125 344.385,595.000 344.385 C 601.875 344.385,604.688 344.545,601.250 344.740 M638.181 347.257 C 639.231 348.638,639.481 349.703,638.847 350.095 C 637.298 351.052,639.874 351.618,645.500 351.555 C 649.970 351.506,650.535 351.251,650.833 349.146 L 651.166 346.792 652.640 348.896 C 654.744 351.900,655.975 351.499,656.160 347.750 L 656.320 344.500 656.723 347.750 C 656.945 349.538,657.557 351.000,658.082 351.000 C 658.608 351.000,658.779 349.762,658.462 348.250 L 657.886 345.500 659.355 347.987 C 660.163 349.356,660.648 350.761,660.432 351.110 C 660.216 351.459,663.863 351.820,668.537 351.913 L 677.034 352.080 677.642 349.040 C 678.393 345.286,679.489 345.097,679.785 348.669 C 680.073 352.159,680.266 352.300,685.792 353.090 C 690.407 353.750,656.204 353.377,634.500 352.531 C 617.261 351.859,603.729 351.849,601.000 352.507 C 599.335 352.908,599.669 352.552,602.000 351.440 C 604.221 350.381,607.598 349.838,611.241 349.956 C 617.517 350.158,621.000 349.415,621.000 347.874 C 621.000 347.328,620.550 347.160,620.000 347.500 C 618.436 348.467,618.826 347.317,620.697 345.446 C 623.283 342.860,635.825 344.159,638.181 347.257 M645.000 344.500 C 645.000 344.775,644.775 345.000,644.500 345.000 C 644.225 345.000,644.000 344.775,644.000 344.500 C 644.000 344.225,644.225 344.000,644.500 344.000 C 644.775 344.000,645.000 344.225,645.000 344.500 M670.000 344.500 C 670.000 344.775,669.775 345.000,669.500 345.000 C 669.225 345.000,669.000 344.775,669.000 344.500 C 669.000 344.225,669.225 344.000,669.500 344.000 C 669.775 344.000,670.000 344.225,670.000 344.500 M673.667 344.667 C 673.300 345.033,672.700 345.033,672.333 344.667 C 671.967 344.300,672.267 344.000,673.000 344.000 C 673.733 344.000,674.033 344.300,673.667 344.667 M717.571 347.571 C 717.204 349.037,716.678 350.011,716.403 349.736 C 716.128 349.461,716.204 348.037,716.571 346.571 C 716.939 345.106,717.465 344.132,717.740 344.407 C 718.015 344.682,717.939 346.106,717.571 347.571 M169.667 345.667 C 169.300 346.033,168.700 346.033,168.333 345.667 C 167.967 345.300,168.267 345.000,169.000 345.000 C 169.733 345.000,170.033 345.300,169.667 345.667 M294.729 345.604 C 294.397 345.936,293.534 345.972,292.813 345.683 C 292.015 345.364,292.252 345.127,293.417 345.079 C 294.471 345.036,295.061 345.272,294.729 345.604 M323.000 346.000 C 323.000 346.550,324.152 347.000,325.559 347.000 C 327.010 347.000,327.851 346.567,327.500 346.000 C 327.160 345.450,326.009 345.000,324.941 345.000 C 323.873 345.000,323.000 345.450,323.000 346.000 M386.000 345.378 C 386.000 345.585,386.685 346.324,387.523 347.019 C 388.796 348.076,388.943 348.014,388.416 346.641 C 387.878 345.240,386.000 344.257,386.000 345.378 M570.667 345.667 C 570.300 346.033,569.700 346.033,569.333 345.667 C 568.967 345.300,569.267 345.000,570.000 345.000 C 570.733 345.000,571.033 345.300,570.667 345.667 M621.566 345.893 C 621.160 346.550,621.467 346.758,622.347 346.420 C 623.145 346.114,624.095 346.344,624.458 346.932 C 624.821 347.519,624.416 348.000,623.559 348.000 C 622.702 348.000,622.000 348.388,622.000 348.862 C 622.000 350.234,632.831 351.161,635.041 349.978 C 639.110 347.801,637.475 346.893,626.868 345.442 C 623.954 345.043,621.988 345.210,621.566 345.893 M650.269 345.656 C 649.592 345.930,648.242 345.947,647.269 345.693 C 646.296 345.439,646.850 345.215,648.500 345.195 C 650.150 345.175,650.946 345.382,650.269 345.656 M667.000 345.500 C 667.000 345.775,666.775 346.000,666.500 346.000 C 666.225 346.000,666.000 345.775,666.000 345.500 C 666.000 345.225,666.225 345.000,666.500 345.000 C 666.775 345.000,667.000 345.225,667.000 345.500 M715.000 345.500 C 715.000 345.775,714.775 346.000,714.500 346.000 C 714.225 346.000,714.000 345.775,714.000 345.500 C 714.000 345.225,714.225 345.000,714.500 345.000 C 714.775 345.000,715.000 345.225,715.000 345.500 M757.345 346.543 C 757.019 347.392,756.538 347.872,756.276 347.610 C 756.014 347.348,756.096 346.653,756.459 346.067 C 757.445 344.471,758.021 344.781,757.345 346.543 M760.168 348.232 C 759.426 348.974,759.296 348.583,759.731 346.920 C 760.085 345.568,760.538 345.114,760.788 345.863 C 761.028 346.585,760.750 347.650,760.168 348.232 M99.500 347.000 C 99.840 347.550,100.343 348.000,100.618 348.000 C 100.893 348.000,100.840 347.550,100.500 347.000 C 100.160 346.450,99.657 346.000,99.382 346.000 C 99.107 346.000,99.160 346.450,99.500 347.000 M156.000 346.500 C 156.000 346.775,155.775 347.000,155.500 347.000 C 155.225 347.000,155.000 346.775,155.000 346.500 C 155.000 346.225,155.225 346.000,155.500 346.000 C 155.775 346.000,156.000 346.225,156.000 346.500 M244.500 347.000 C 244.160 347.550,241.546 347.927,238.691 347.837 L 233.500 347.674 239.000 347.000 C 242.025 346.629,244.639 346.253,244.809 346.163 C 244.979 346.073,244.840 346.450,244.500 347.000 M359.500 346.928 C 360.958 347.502,360.349 347.717,357.250 347.721 C 354.913 347.725,353.000 347.339,353.000 346.864 C 353.000 345.812,356.761 345.850,359.500 346.928 M670.290 348.000 C 670.577 349.100,670.457 350.000,670.023 350.000 C 669.589 350.000,668.998 349.100,668.710 348.000 C 668.423 346.900,668.543 346.000,668.977 346.000 C 669.411 346.000,670.002 346.900,670.290 348.000 M674.000 348.500 C 674.000 349.875,673.827 351.000,673.617 351.000 C 673.406 351.000,673.018 349.875,672.755 348.500 C 672.492 347.125,672.665 346.000,673.139 346.000 C 673.612 346.000,674.000 347.125,674.000 348.500 M727.577 351.029 C 730.631 352.191,730.778 353.378,727.750 352.433 C 725.028 351.583,723.991 350.161,724.151 347.500 C 724.253 345.828,724.345 345.878,724.713 347.804 C 724.955 349.071,726.244 350.522,727.577 351.029 M152.000 347.500 C 152.000 347.775,151.775 348.000,151.500 348.000 C 151.225 348.000,151.000 347.775,151.000 347.500 C 151.000 347.225,151.225 347.000,151.500 347.000 C 151.775 347.000,152.000 347.225,152.000 347.500 M370.250 347.706 C 369.012 347.944,366.988 347.944,365.750 347.706 C 364.512 347.467,365.525 347.272,368.000 347.272 C 370.475 347.272,371.488 347.467,370.250 347.706 M458.667 347.667 C 458.300 348.033,457.700 348.033,457.333 347.667 C 456.967 347.300,457.267 347.000,458.000 347.000 C 458.733 347.000,459.033 347.300,458.667 347.667 M648.667 347.667 C 648.300 348.033,647.700 348.033,647.333 347.667 C 646.967 347.300,647.267 347.000,648.000 347.000 C 648.733 347.000,649.033 347.300,648.667 347.667 M714.667 348.667 C 714.300 349.033,714.000 348.733,714.000 348.000 C 714.000 347.267,714.300 346.967,714.667 347.333 C 715.033 347.700,715.033 348.300,714.667 348.667 M63.717 349.383 C 64.056 349.722,59.421 349.968,53.417 349.930 C 47.412 349.891,43.270 349.554,44.212 349.180 C 46.302 348.350,62.856 348.523,63.717 349.383 M171.000 349.167 C 171.000 350.231,167.897 350.221,166.211 349.151 C 165.379 348.624,166.001 348.333,167.961 348.333 C 169.632 348.333,171.000 348.708,171.000 349.167 M173.000 348.500 C 173.000 348.775,172.775 349.000,172.500 349.000 C 172.225 349.000,172.000 348.775,172.000 348.500 C 172.000 348.225,172.225 348.000,172.500 348.000 C 172.775 348.000,173.000 348.225,173.000 348.500 M296.000 349.089 C 293.525 349.550,289.250 350.154,286.500 350.430 L 281.500 350.933 286.348 350.035 C 289.014 349.542,291.452 348.882,291.764 348.569 C 292.077 348.256,294.171 348.056,296.417 348.125 L 300.500 348.250 296.000 349.089 M465.829 349.293 C 466.680 350.319,466.189 350.504,463.459 350.185 C 461.565 349.964,460.264 349.382,460.567 348.892 C 461.386 347.567,464.600 347.813,465.829 349.293 M513.667 348.667 C 513.300 349.033,512.700 349.033,512.333 348.667 C 511.967 348.300,512.267 348.000,513.000 348.000 C 513.733 348.000,514.033 348.300,513.667 348.667 M694.000 349.800 C 694.000 350.790,694.540 352.140,695.200 352.800 C 696.133 353.733,696.046 354.000,694.807 354.000 C 693.202 354.000,692.000 352.039,692.000 349.418 C 692.000 348.638,692.450 348.000,693.000 348.000 C 693.550 348.000,694.000 348.810,694.000 349.800 M158.000 350.000 C 158.000 350.550,157.523 351.000,156.941 351.000 C 156.359 351.000,156.160 350.550,156.500 350.000 C 156.840 349.450,157.316 349.000,157.559 349.000 C 157.802 349.000,158.000 349.450,158.000 350.000 M176.000 349.500 C 176.000 349.775,175.775 350.000,175.500 350.000 C 175.225 350.000,175.000 349.775,175.000 349.500 C 175.000 349.225,175.225 349.000,175.500 349.000 C 175.775 349.000,176.000 349.225,176.000 349.500 M193.917 349.361 C 193.688 349.559,189.675 349.961,185.000 350.255 C 180.216 350.555,177.593 350.441,179.000 349.994 C 181.450 349.215,194.736 348.651,193.917 349.361 M256.750 349.739 C 253.588 349.937,248.412 349.937,245.250 349.739 C 242.088 349.541,244.675 349.378,251.000 349.378 C 257.325 349.378,259.913 349.541,256.750 349.739 M305.250 349.662 C 304.563 349.940,303.438 349.940,302.750 349.662 C 302.063 349.385,302.625 349.158,304.000 349.158 C 305.375 349.158,305.938 349.385,305.250 349.662 M308.667 349.667 C 308.300 350.033,307.700 350.033,307.333 349.667 C 306.967 349.300,307.267 349.000,308.000 349.000 C 308.733 349.000,309.033 349.300,308.667 349.667 M321.000 349.500 C 321.000 349.775,320.775 350.000,320.500 350.000 C 320.225 350.000,320.000 349.775,320.000 349.500 C 320.000 349.225,320.225 349.000,320.500 349.000 C 320.775 349.000,321.000 349.225,321.000 349.500 M508.332 350.422 C 508.632 351.205,509.918 352.043,511.189 352.286 C 513.397 352.708,513.386 352.734,510.950 352.864 C 508.490 352.995,506.000 351.454,506.000 349.800 C 506.000 348.447,507.753 348.915,508.332 350.422 M687.729 349.604 C 687.397 349.936,686.534 349.972,685.813 349.683 C 685.015 349.364,685.252 349.127,686.417 349.079 C 687.471 349.036,688.061 349.272,687.729 349.604 M516.500 351.000 C 516.840 351.550,516.443 352.000,515.618 352.000 C 514.793 352.000,513.840 351.550,513.500 351.000 C 513.160 350.450,513.557 350.000,514.382 350.000 C 515.207 350.000,516.160 350.450,516.500 351.000 M423.729 351.604 C 423.397 351.936,422.534 351.972,421.813 351.683 C 421.015 351.364,421.252 351.127,422.417 351.079 C 423.471 351.036,424.061 351.272,423.729 351.604 M461.000 351.500 C 461.000 351.775,460.775 352.000,460.500 352.000 C 460.225 352.000,460.000 351.775,460.000 351.500 C 460.000 351.225,460.225 351.000,460.500 351.000 C 460.775 351.000,461.000 351.225,461.000 351.500 M489.000 352.320 C 489.825 352.629,491.400 353.111,492.500 353.389 C 494.553 353.909,488.122 353.284,477.500 351.933 C 471.773 351.205,471.864 351.183,479.500 351.463 C 483.900 351.624,488.175 352.010,489.000 352.320 M706.768 351.715 C 705.265 351.943,702.565 351.947,700.768 351.725 C 698.971 351.502,700.200 351.315,703.500 351.310 C 706.800 351.304,708.271 351.486,706.768 351.715 M42.195 352.747 C 35.977 352.923,26.077 352.922,20.195 352.746 C 14.313 352.569,19.400 352.425,31.500 352.426 C 43.600 352.427,48.413 352.571,42.195 352.747 M61.250 352.662 C 60.563 352.940,59.438 352.940,58.750 352.662 C 58.063 352.385,58.625 352.158,60.000 352.158 C 61.375 352.158,61.938 352.385,61.250 352.662 M100.645 353.107 C 98.379 353.639,90.546 353.658,81.645 353.153 L 66.500 352.294 85.500 352.247 C 98.930 352.215,103.370 352.466,100.645 353.107 M519.000 352.500 C 519.000 352.775,518.775 353.000,518.500 353.000 C 518.225 353.000,518.000 352.775,518.000 352.500 C 518.000 352.225,518.225 352.000,518.500 352.000 C 518.775 352.000,519.000 352.225,519.000 352.500 M550.000 352.500 C 550.000 352.775,549.775 353.000,549.500 353.000 C 549.225 353.000,549.000 352.775,549.000 352.500 C 549.000 352.225,549.225 352.000,549.500 352.000 C 549.775 352.000,550.000 352.225,550.000 352.500 M571.264 353.704 C 570.034 353.941,567.784 353.947,566.264 353.718 C 564.744 353.488,565.750 353.294,568.500 353.286 C 571.250 353.279,572.494 353.467,571.264 353.704 M593.667 353.667 C 593.300 354.033,592.700 354.033,592.333 353.667 C 591.967 353.300,592.267 353.000,593.000 353.000 C 593.733 353.000,594.033 353.300,593.667 353.667 M611.762 353.687 C 610.806 353.937,609.006 353.946,607.762 353.707 C 606.518 353.468,607.300 353.263,609.500 353.252 C 611.700 353.241,612.718 353.437,611.762 353.687 M731.493 355.117 C 736.997 355.182,746.000 355.589,751.500 356.021 C 759.072 356.617,757.009 356.703,743.000 356.378 C 722.654 355.905,715.000 355.248,715.000 353.976 C 715.000 353.516,716.460 353.558,718.243 354.070 C 720.027 354.581,725.990 355.053,731.493 355.117 M522.750 355.689 C 521.788 355.941,520.212 355.941,519.250 355.689 C 518.288 355.438,519.075 355.232,521.000 355.232 C 522.925 355.232,523.712 355.438,522.750 355.689 M546.750 356.689 C 545.788 356.941,544.212 356.941,543.250 356.689 C 542.288 356.438,543.075 356.232,545.000 356.232 C 546.925 356.232,547.712 356.438,546.750 356.689 M361.750 358.728 C 359.688 358.944,356.313 358.944,354.250 358.728 C 352.188 358.513,353.875 358.336,358.000 358.336 C 362.125 358.336,363.813 358.513,361.750 358.728 M265.667 363.667 C 265.300 364.033,264.700 364.033,264.333 363.667 C 263.967 363.300,264.267 363.000,265.000 363.000 C 265.733 363.000,266.033 363.300,265.667 363.667 " stroke="none" fill="undefined" fill-rule="evenodd"/></svg>