<svg id="svg" version="1.1" width="800" height="388" xmlns="http://www.w3.org/2000/svg"><path d="M456.606 267.250 C 456.298 271.238,455.761 279.605,455.412 285.845 L 454.778 297.191 452.139 296.535 C 445.398 294.859,443.900 294.836,441.560 296.368 C 439.954 297.421,438.837 299.417,438.281 302.232 C 436.379 311.849,432.280 303.911,433.463 292.901 C 433.951 288.365,433.719 286.875,432.243 285.052 C 429.793 282.027,422.065 281.072,418.569 283.363 C 416.184 284.926,416.103 285.349,416.197 295.798 C 416.336 311.269,413.510 315.972,406.977 311.141 C 405.450 310.012,403.069 308.804,401.685 308.457 C 398.354 307.621,392.088 310.638,390.953 313.625 C 390.103 315.858,389.780 315.920,382.090 315.327 C 377.223 314.952,373.015 315.135,371.305 315.795 C 369.762 316.391,366.587 317.170,364.250 317.527 L 360.000 318.176 360.000 312.566 C 360.000 307.368,359.692 306.621,355.809 302.408 C 352.001 298.277,351.580 297.297,351.211 291.681 C 350.734 284.420,349.452 283.000,343.376 283.000 C 338.203 283.000,338.358 282.567,337.472 299.500 C 336.774 312.853,335.882 315.977,333.367 313.890 C 331.680 312.489,331.529 302.650,333.125 298.071 C 334.890 293.008,333.136 290.293,327.560 289.457 C 322.051 288.631,316.437 289.561,314.746 291.581 C 311.477 295.486,310.626 296.000,307.429 296.000 C 305.400 296.000,303.228 296.772,302.110 297.890 C 300.256 299.744,300.230 299.705,300.742 295.890 C 301.270 291.948,300.670 291.291,298.052 292.947 C 297.087 293.557,296.481 296.142,296.236 300.682 C 295.720 310.266,295.754 310.213,291.363 308.378 C 286.929 306.526,283.198 307.084,279.802 310.109 C 276.859 312.730,269.326 314.894,262.928 314.956 C 260.414 314.980,256.194 315.737,253.551 316.637 C 249.390 318.055,247.815 318.109,241.810 317.035 C 237.801 316.319,229.594 315.945,222.357 316.148 C 211.340 316.458,209.687 316.290,208.560 314.750 C 206.783 312.321,206.260 312.540,205.493 316.034 C 204.447 320.796,201.048 322.431,194.217 321.460 C 191.073 321.013,165.100 320.481,136.500 320.278 C 107.900 320.074,81.350 319.882,77.500 319.849 C 73.650 319.817,61.500 320.347,50.500 321.028 C 35.482 321.957,28.632 321.987,23.000 321.149 C 18.875 320.534,12.013 319.747,7.750 319.398 L 0.000 318.765 0.000 353.383 L 0.000 388.000 400.000 388.000 L 800.000 388.000 800.000 361.131 L 800.000 334.261 769.750 334.381 C 753.112 334.446,733.425 334.366,726.000 334.203 C 718.575 334.039,711.150 333.922,709.500 333.942 C 686.284 334.228,558.644 331.764,550.000 330.864 C 543.675 330.205,534.478 329.482,529.561 329.257 C 522.844 328.950,520.041 328.391,518.282 327.007 C 516.994 325.994,514.052 324.847,511.742 324.456 C 509.433 324.066,506.583 323.118,505.409 322.348 C 503.671 321.210,501.595 321.140,494.248 321.972 C 489.284 322.534,483.710 322.699,481.861 322.338 C 478.610 321.703,469.742 314.731,467.552 311.089 C 466.973 310.126,465.462 307.800,464.194 305.920 C 462.106 302.824,461.957 301.837,462.626 295.500 C 463.545 286.780,463.511 286.112,461.395 271.750 C 459.335 257.765,457.471 256.014,456.606 267.250 " stroke="none" fill="undefined" fill-rule="evenodd"/></svg>